<?xml version="1.0" standalone="no"?>
<!DOCTYPE svg PUBLIC "-//W3C//DTD SVG 20010904//EN"
 "http://www.w3.org/TR/2001/REC-SVG-20010904/DTD/svg10.dtd">
<svg version="1.0" xmlns="http://www.w3.org/2000/svg"
 width="70.000000pt" height="70.000000pt" viewBox="0 0 70.000000 70.000000"
 preserveAspectRatio="xMidYMid meet">
<metadata>
Created by potrace 1.11, written by Peter Selinger 2001-2013
</metadata>
<g transform="translate(0.000000,70.000000) scale(0.100000,-0.100000)"
fill="#000000" stroke="none">
<path d="M473 456 c69 -31 59 -73 -29 -125 -30 -18 -31 -18 -27 -1 3 12 11 16
21 13 10 -4 13 -2 8 5 -11 17 -49 15 -43 -2 3 -8 0 -21 -6 -29 -15 -19 -83
-41 -103 -33 -8 3 -13 2 -10 -3 8 -12 -45 -21 -125 -21 -74 0 -115 11 -136 38
-13 16 -14 16 -11 -3 2 -12 20 -29 46 -42 37 -18 56 -21 130 -18 86 4 207 32
263 61 16 8 29 11 29 6 0 -4 12 -9 28 -10 15 -1 45 -4 68 -7 35 -4 114 15 114
29 0 1 -21 4 -47 5 -41 2 -80 5 -116 10 -4 1 4 13 18 28 14 15 25 36 25 45 0
24 -36 55 -72 62 -46 9 -56 6 -25 -8z"/>
<path d="M93 397 c-66 -83 -67 -86 -42 -84 11 1 38 22 60 48 45 54 51 74 12
38 l-27 -24 25 31 24 31 29 -31 c15 -17 39 -45 53 -63 23 -30 28 -32 84 -31
49 1 59 4 56 17 -3 13 15 45 49 90 2 2 17 -10 33 -28 16 -17 32 -28 35 -23 3
5 -10 23 -28 41 -33 32 -34 32 -82 20 -27 -7 -53 -15 -59 -20 -13 -9 -65 0
-65 12 0 5 -8 9 -19 9 -10 0 -34 7 -53 15 l-35 14 -50 -62z m7 -30 c0 -2 -10
-12 -22 -23 l-23 -19 19 23 c18 21 26 27 26 19z"/>
<path d="M127 353 c-9 -19 0 -36 21 -39 18 -3 22 1 22 21 0 18 -5 25 -19 25
-11 0 -22 -3 -24 -7z m28 -13 c3 -5 1 -10 -4 -10 -6 0 -11 5 -11 10 0 6 2 10
4 10 3 0 8 -4 11 -10z"/>
<path d="M75 280 c3 -5 8 -10 11 -10 2 0 4 5 4 10 0 6 -5 10 -11 10 -5 0 -7
-4 -4 -10z"/>
<path d="M150 279 c-54 -6 -54 -6 20 -7 41 -1 81 2 89 7 15 10 -20 10 -109 0z"/>
</g>
</svg>
