<svg xmlns="http://www.w3.org/2000/svg" width="28.304" height="31.96" viewBox="0 0 28.304 31.96">
  <g id="icon_csv" transform="translate(-31.36)">
    <path id="Path_3375" data-name="Path 3375" d="M57.872,11.432h-.767v-3.7a.551.551,0,0,0-.007-.07.615.615,0,0,0-.149-.406L50.788.214l0,0a.608.608,0,0,0-.125-.1C50.644.1,50.631.089,50.617.081a.656.656,0,0,0-.124-.052L50.46.018A.63.63,0,0,0,50.316,0H35.172a1.255,1.255,0,0,0-1.253,1.253V11.431h-.767a1.791,1.791,0,0,0-1.791,1.791v9.315a1.792,1.792,0,0,0,1.791,1.792h.767v6.377a1.254,1.254,0,0,0,1.253,1.253h20.68a1.255,1.255,0,0,0,1.253-1.253V24.33h.767a1.792,1.792,0,0,0,1.791-1.791V13.223A1.791,1.791,0,0,0,57.872,11.432ZM35.172,1.253H49.689V7.666a.627.627,0,0,0,.627.627h5.536v3.14H35.172Zm9.435,17c-1.555-.542-2.568-1.4-2.568-2.762,0-1.6,1.333-2.819,3.54-2.819a5.722,5.722,0,0,1,2.388.473l-.472,1.708a4.438,4.438,0,0,0-1.958-.445c-.916,0-1.36.417-1.36.9,0,.6.527.861,1.736,1.319,1.652.611,2.43,1.471,2.43,2.791,0,1.569-1.208,2.9-3.777,2.9a6.131,6.131,0,0,1-2.652-.569l.43-1.75a5.392,5.392,0,0,0,2.347.583c.972,0,1.486-.4,1.486-1.014C46.176,18.99,45.731,18.657,44.607,18.255Zm-11.025-.611a4.771,4.771,0,0,1,5.109-4.97A5.517,5.517,0,0,1,41,13.09l-.431,1.68a4.586,4.586,0,0,0-1.777-.346,2.814,2.814,0,0,0-2.985,3.1,2.794,2.794,0,0,0,3,3.054,5.284,5.284,0,0,0,1.763-.305l.32,1.652a6.023,6.023,0,0,1-2.4.4C35.248,22.324,33.582,20.31,33.582,17.644Zm22.27,12.723H35.172V24.33h20.68Zm-1.4-8.183H51.98l-3-9.358H51.3l1.138,3.958c.319,1.11.611,2.179.833,3.346h.041c.236-1.125.527-2.236.847-3.3l1.194-4H57.6Z" transform="translate(0)"/>
  </g>
</svg>
