<svg xmlns="http://www.w3.org/2000/svg" width="37.488" height="32.957" viewBox="0 0 37.488 32.957">
  <g id="Group_13051" data-name="Group 13051" transform="translate(-7099 19257)">
    <text id="_.env" data-name=".env" transform="translate(7118 -19233)" fill="#3cc9d7" font-size="10" font-family="Montserrat-Regular, Montserrat"><tspan x="-10.05" y="0">.env</tspan></text>
    <g id="folder_1_" data-name="folder (1)" transform="translate(7099 -19287.055)">
      <path id="Path_64720" data-name="Path 64720" d="M55.229,40.964H52.867V37.145H48.89V34.783h5.158a1.16,1.16,0,0,1,1.181,1.181Zm-31.969,0H20.9V31.83a1.16,1.16,0,0,1,1.181-1.181H29.52a1.243,1.243,0,0,1,.748.276L34.8,34.783h3.15v2.362H34.363a1.243,1.243,0,0,1-.748-.276l-4.528-3.858H23.26Z" transform="translate(-19.323 -0.55)" fill="#1185e0"/>
      <path id="Path_64721" data-name="Path 64721" d="M102.379,41.477l-1.024-2.126L120.8,30.178a1.046,1.046,0,0,1,.905-.039,1.237,1.237,0,0,1,.669.591l4.37,9.291-2.126,1.024-3.858-8.228Z" transform="translate(-93.717)" fill="#3cc9d7"/>
      <path id="Path_64722" data-name="Path 64722" d="M35.118,176.119H2.362a1.17,1.17,0,0,1-1.181-1.1L0,153.6a1.184,1.184,0,0,1,.315-.866,1.221,1.221,0,0,1,.866-.354H36.3a1.221,1.221,0,0,1,.866.354,1.044,1.044,0,0,1,.315.866L36.3,175.017A1.17,1.17,0,0,1,35.118,176.119ZM3.465,173.757H33.977L35.04,154.7H2.441Z" transform="translate(0 -113.107)" fill="#3cc9d7"/>
    </g>
  </g>
</svg>
