<svg xmlns="http://www.w3.org/2000/svg" width="20" height="11.717" viewBox="0 0 20 11.717">
  <path id="mail" d="M20.157,19.926v-.152c0-.022-.022-.043-.022-.087,0-.022-.022-.065-.022-.087s-.022-.043-.043-.065-.022-.065-.043-.087v-.022l-.043-.043-.065-.065c-.022-.022-.043-.043-.065-.043-.022-.022-.043-.043-.065-.043-.022-.022-.043-.022-.065-.043s-.043-.022-.065-.043c-.022,0-.065-.022-.087-.022s-.043-.022-.087-.022H.874c-.022,0-.043.022-.087.022-.022,0-.065.022-.087.022s-.043.022-.065.043-.043.022-.065.043-.043.022-.065.043-.043.043-.065.043l-.065.065-.043.043v.022a.165.165,0,0,0-.043.087c-.022.022-.022.043-.043.065s-.022.043-.022.087c0,.022-.022.043-.022.087V29.948a.872.872,0,0,0,.87.87H19.33a.872.872,0,0,0,.87-.87l-.043-10.022Zm-3.5.891-6.5,4.826-6.5-4.826ZM1.9,29.078V21.687l7.739,5.739a.87.87,0,0,0,1.043,0l7.739-5.739v7.391Z" transform="translate(-0.2 -19.1)" fill="#858585"/>
</svg>
