<svg xmlns="http://www.w3.org/2000/svg" width="16.608" height="18.98" viewBox="0 0 16.608 18.98">
  <g id="Group_9625" data-name="Group 9625" transform="translate(-1017 -890.144)">
    <path id="Path_82" data-name="Path 82" d="M20.515,0H30.595l5.342,5.322V17.794a1.186,1.186,0,0,1-1.186,1.186H20.515a1.186,1.186,0,0,1-1.186-1.186V1.186A1.186,1.186,0,0,1,20.515,0Z" transform="translate(997.671 890.144)" fill="#c5c5c5"/>
    <path id="Path_83" data-name="Path 83" d="M208.278,5.519h-4.135a1.187,1.187,0,0,1-1.186-1.186V.193Z" transform="translate(825.313 889.963)" fill="#a2a2a2"/>
    <path id="Path_84" data-name="Path 84" d="M95.078,136.1a.345.345,0,0,0,0-.683H93.947a.354.354,0,0,0-.345.386v2.781c0,.248.141.386.332.386s.332-.138.332-.386v-.763h.684a.321.321,0,0,0,.319-.346.315.315,0,0,0-.319-.337h-.684V136.1Zm-3.825-.683h-.828a.366.366,0,0,0-.384.383v2.786a.365.365,0,0,0,.394.373H91.3a1.612,1.612,0,0,0,1.708-1.721A1.654,1.654,0,0,0,91.253,135.42Zm.04,2.855h-.5v-2.169h.455c.689,0,.988.462.988,1.1C92.231,137.8,91.937,138.275,91.293,138.275ZM88.26,135.42h-.82a.345.345,0,0,0-.361.386v2.781a.349.349,0,1,0,.7,0v-.812h.514a1.123,1.123,0,0,0,1.158-1.173A1.136,1.136,0,0,0,88.26,135.42Zm-.014,1.7h-.473v-1.049h.473a.527.527,0,0,1,0,1.049Z" transform="translate(934.08 763.034)" fill="#fff"/>
  </g>
</svg>
