<svg xmlns="http://www.w3.org/2000/svg" width="32.754" height="37.434" viewBox="0 0 32.754 37.434">
  <g id="Group_9728" data-name="Group 9728" transform="translate(-156.663 -1936.741)">
    <path id="Path_3182" data-name="Path 3182" d="M21.669,0H41.547L52.083,10.5v24.6a2.34,2.34,0,0,1-2.34,2.34H21.669a2.34,2.34,0,0,1-2.34-2.34V2.34A2.34,2.34,0,0,1,21.669,0Z" transform="translate(137.334 1936.741)" fill="#e2574c"/>
    <path id="Path_3183" data-name="Path 3183" d="M213.451,10.7H205.3a2.34,2.34,0,0,1-2.34-2.34V.193Z" transform="translate(-24.067 1936.572)" fill="#b53629"/>
    <path id="Path_3184" data-name="Path 3184" d="M102.856,136.766a.68.68,0,0,0,0-1.346h-2.232a.7.7,0,0,0-.68.76v5.485c0,.489.278.76.655.76s.654-.271.654-.76V140.16h1.35a.634.634,0,0,0,.628-.683.622.622,0,0,0-.628-.664h-1.35v-2.046Zm-7.544-1.346H93.679a.722.722,0,0,0-.758.756v5.495a.72.72,0,0,0,.777.736h1.714a3.179,3.179,0,0,0,3.368-3.395A3.262,3.262,0,0,0,95.312,135.42Zm.078,5.631h-1v-4.277h.9c1.358,0,1.949.911,1.949,2.169C97.241,140.12,96.661,141.051,95.391,141.051Zm-5.982-5.631H87.79a.68.68,0,0,0-.712.76v5.485a.689.689,0,1,0,1.371,0v-1.6h1.014a2.215,2.215,0,0,0,2.285-2.313A2.241,2.241,0,0,0,89.408,135.42Zm-.027,3.357h-.932v-2.069h.932a1.039,1.039,0,0,1,0,2.069Z" transform="translate(77.786 1817.713)" fill="#fff"/>
  </g>
</svg>
