<svg xmlns="http://www.w3.org/2000/svg" width="24.013" height="32.417" viewBox="0 0 24.013 32.417">
  <g id="Icon_text" transform="translate(-0.109 -6.492)">
    <path id="Path_3380" data-name="Path 3380" d="M.109,57.5V88.719a.6.6,0,0,0,.6.6H23.522a.6.6,0,0,0,.6-.6V63.506c0-.013-.006-.025-.008-.038a.566.566,0,0,0-.031-.154c-.007-.019-.011-.038-.02-.057a.594.594,0,0,0-.12-.176l-6-6a.582.582,0,0,0-.177-.12.543.543,0,0,0-.055-.02.6.6,0,0,0-.156-.031c-.01,0-.022,0-.035,0H.71a.6.6,0,0,0-.6.6Zm21.963,5.4H18.119V58.952ZM1.31,58.1H16.918v5.4a.6.6,0,0,0,.6.6h5.4V88.119H1.31Zm0,0" transform="translate(0 -50.41)"/>
    <path id="Path_3382" data-name="Path 3382" d="M75.977,189.668H90.384v1.2H75.977Zm0,0" transform="translate(-71.065 -174.771)"/>
    <path id="Path_3383" data-name="Path 3383" d="M75.977,132.766h4.8v1.2h-4.8Zm0,0" transform="translate(-71.065 -121.472)"/>
    <path id="Path_3384" data-name="Path 3384" d="M75.977,246.566h9.605v1.2H75.977Zm0,0" transform="translate(-71.065 -228.068)"/>
    <path id="Path_3385" data-name="Path 3385" d="M246.676,246.566h3.6v1.2h-3.6Zm0,0" transform="translate(-230.958 -228.068)"/>
    <path id="Path_3386" data-name="Path 3386" d="M75.977,303.465H90.384v1.2H75.977Zm0,0" transform="translate(-71.065 -281.365)"/>
    <path id="Path_3387" data-name="Path 3387" d="M75.977,417.266H90.384v1.2H75.977Zm0,0" transform="translate(-71.065 -387.962)"/>
    <path id="Path_3388" data-name="Path 3388" d="M161.324,360.367h9v1.2h-9Zm0,0" transform="translate(-151.009 -334.665)"/>
    <path id="Path_3389" data-name="Path 3389" d="M75.977,360.367h4.2v1.2h-4.2Zm0,0" transform="translate(-71.065 -334.665)"/>
    <path id="Path_3390" data-name="Path 3390" d="M75.977,474.168h2.4v1.2h-2.4Zm0,0" transform="translate(-71.065 -441.262)"/>
    <path id="Path_3391" data-name="Path 3391" d="M132.875,474.168h10.806v1.2H132.875Zm0,0" transform="translate(-124.361 -441.262)"/>
  </g>
</svg>
