<svg xmlns="http://www.w3.org/2000/svg" width="34.905" height="33.455" viewBox="0 0 34.905 33.455">
  <g id="word" transform="translate(0 0)">
    <g id="Group_2678" data-name="Group 2678">
      <path id="Path_3185" data-name="Path 3185" d="M20.088,10.789a.727.727,0,0,0-.617-.145L.564,15.006A.727.727,0,0,0,0,15.722V40.445a.727.727,0,0,0,.617.718l18.907,2.909a.727.727,0,0,0,.838-.718v-32A.727.727,0,0,0,20.088,10.789Z" transform="translate(0 -10.626)" fill="#1565c0"/>
      <path id="Path_3186" data-name="Path 3186" d="M292.6,81.009H278.06a.727.727,0,1,1,0-1.454h13.817V54.831H278.06a.727.727,0,1,1,0-1.454H292.6a.727.727,0,0,1,.727.727V80.282A.727.727,0,0,1,292.6,81.009Z" transform="translate(-258.426 -50.463)" fill="#1565c0"/>
    </g>
    <path id="Path_3187" data-name="Path 3187" d="M52.028,192.74a.727.727,0,0,1-.7-.526l-2.211-7.734-2.211,7.734a.756.756,0,0,1-1.4,0L42.6,182.033a.727.727,0,0,1,1.386-.441c0,.013.008.027.012.041l2.211,7.733,2.211-7.734a.756.756,0,0,1,1.4,0l2.209,7.734,2.211-7.733a.719.719,0,0,1,.883-.5l.016,0a.727.727,0,0,1,.5.9l-2.909,10.18A.727.727,0,0,1,52.028,192.74Z" transform="translate(-39.665 -169.465)" fill="#fafafa"/>
    <g id="Group_2679" data-name="Group 2679" transform="translate(18.907 7.277)">
      <path id="Path_3188" data-name="Path 3188" d="M289.7,118.83H278.06a.727.727,0,1,1,0-1.454H289.7a.727.727,0,1,1,0,1.454Z" transform="translate(-277.333 -117.376)" fill="#1565c0"/>
      <path id="Path_3189" data-name="Path 3189" d="M289.7,182.83H278.06a.727.727,0,1,1,0-1.454H289.7a.727.727,0,1,1,0,1.454Z" transform="translate(-277.333 -177.013)" fill="#1565c0"/>
      <path id="Path_3190" data-name="Path 3190" d="M289.7,246.83H278.06a.727.727,0,1,1,0-1.454H289.7a.727.727,0,1,1,0,1.454Z" transform="translate(-277.333 -236.65)" fill="#1565c0"/>
      <path id="Path_3191" data-name="Path 3191" d="M289.7,310.83H278.06a.727.727,0,1,1,0-1.454H289.7a.727.727,0,1,1,0,1.454Z" transform="translate(-277.333 -296.287)" fill="#1565c0"/>
      <path id="Path_3192" data-name="Path 3192" d="M289.7,374.83H278.06a.727.727,0,1,1,0-1.454H289.7a.727.727,0,1,1,0,1.454Z" transform="translate(-277.333 -355.924)" fill="#1565c0"/>
    </g>
  </g>
</svg>
