<svg xmlns="http://www.w3.org/2000/svg" width="28.907" height="32.641" viewBox="0 0 28.907 32.641">
  <g id="icon_xml" transform="translate(-31.504)">
    <path id="Path_3392" data-name="Path 3392" d="M58.581,11.675H57.8V7.894a.556.556,0,0,0-.007-.071.627.627,0,0,0-.152-.414L51.346.219l-.005,0a.629.629,0,0,0-.127-.107C51.2.1,51.186.09,51.171.082a.671.671,0,0,0-.126-.053L51.011.018A.648.648,0,0,0,50.864,0H35.4a1.281,1.281,0,0,0-1.28,1.28V11.675h-.784A1.829,1.829,0,0,0,31.5,13.5v9.514a1.83,1.83,0,0,0,1.83,1.83h.784V31.36a1.281,1.281,0,0,0,1.28,1.28h21.12a1.282,1.282,0,0,0,1.28-1.28V24.848h.784a1.83,1.83,0,0,0,1.829-1.829V13.5A1.83,1.83,0,0,0,58.581,11.675ZM35.4,1.28H50.224V7.829a.64.64,0,0,0,.64.64h5.654v3.206H35.4ZM51.535,22.195h-1.9l-.128-3.29c-.038-1.033-.077-2.283-.077-3.533h-.038c-.268,1.1-.625,2.321-.956,3.328l-1.046,3.354H45.874l-.918-3.328c-.28-1.007-.573-2.232-.778-3.354h-.025c-.051,1.161-.089,2.487-.153,3.558l-.153,3.264h-1.8L42.6,13.6h2.588l.842,2.869c.268.994.536,2.065.726,3.072h.039c.242-.994.536-2.129.816-3.085l.918-2.856h2.538Zm-17.751,0,2.486-4.349-2.4-4.246h2.231l.752,1.568c.256.523.446.944.651,1.428h.025c.2-.548.369-.93.586-1.428l.727-1.568h2.218l-2.423,4.2,2.551,4.4H38.95l-.778-1.556c-.319-.6-.523-1.045-.765-1.543h-.026c-.178.5-.4.944-.663,1.543L36,22.195H33.785Zm22.733,8.819H35.4V24.848h21.12v6.166Zm1.88-8.819H53.028V13.6H54.98v6.963H58.4v1.632Z"/>
  </g>
</svg>
