<svg xmlns="http://www.w3.org/2000/svg" width="32" height="32" viewBox="0 0 32 32">
  <g id="Group_28" data-name="Group 28" transform="translate(-153 -152)">
    <g id="contract" transform="translate(48 41)">
      <rect id="Rectangle_17" data-name="Rectangle 17" width="32" height="32" transform="translate(105 111)" fill="none"/>
      <g id="contract-2" data-name="contract" transform="translate(105 111)">
        <path id="Path_81" data-name="Path 81" d="M23.408,5.625H18.72V.937A.928.928,0,0,0,17.783,0H2.812A2.809,2.809,0,0,0,0,2.812V29.187A2.809,2.809,0,0,0,2.812,32h18.72a2.809,2.809,0,0,0,2.812-2.812V6.562A.928.928,0,0,0,23.408,5.625Z" fill="#2072a0"/>
        <path id="Path_82" data-name="Path 82" d="M206.712,6.562V29.187A2.809,2.809,0,0,1,203.9,32h-9.375V0h5.625a.928.928,0,0,1,.937.937V5.625h4.687A.928.928,0,0,1,206.712,6.562Z" transform="translate(-182.367)" fill="#195f8e"/>
        <path id="Path_83" data-name="Path 83" d="M277.025,7.5h-6.562a.937.937,0,0,1-.938-.937V0h2.043a2.814,2.814,0,0,1,1.978.819l2.66,2.661a2.819,2.819,0,0,1,.819,1.976Z" transform="translate(-252.68)" fill="#2072a0"/>
        <path id="Path_84" data-name="Path 84" d="M410.412,148.777a2.865,2.865,0,0,0-3.975,0l-.956.975-.675.656a.906.906,0,0,0,0,1.313l1.331,1.331,1.331,1.331a.906.906,0,0,0,1.312,0l.675-.656.956-.975A2.8,2.8,0,0,0,410.412,148.777Z" transform="translate(-379.242 -138.727)" fill="#f48b56"/>
        <path id="Path_85" data-name="Path 85" d="M272.049,302.409l-1.931-1.931a.07.07,0,0,0-.112,0l-.056.038a.875.875,0,0,0-.225.375l-1.331,3.994a.879.879,0,0,0,.225.956v.019a.906.906,0,0,0,.956.206l3.994-1.331a.874.874,0,0,0,.375-.225l.038-.038a.07.07,0,0,0,0-.112C273.361,303.722,272.686,303.047,272.049,302.409Z" transform="translate(-251.566 -281.672)" fill="#fedbab"/>
        <g id="Group_19" data-name="Group 19" transform="translate(3.759 9.375)">
          <path id="Path_86" data-name="Path 86" d="M74.175,151.875H61.08a.938.938,0,0,1,0-1.875h13.1A.938.938,0,0,1,74.175,151.875Z" transform="translate(-60.152 -150)" fill="#05365b"/>
          <path id="Path_87" data-name="Path 87" d="M70.425,211.875H61.08a.938.938,0,0,1,0-1.875h9.345A.938.938,0,0,1,70.425,211.875Z" transform="translate(-60.152 -206.25)" fill="#05365b"/>
          <path id="Path_88" data-name="Path 88" d="M70.425,271.875H61.08a.938.938,0,0,1,0-1.875h9.345A.938.938,0,0,1,70.425,271.875Z" transform="translate(-60.152 -262.5)" fill="#05365b"/>
          <path id="Path_89" data-name="Path 89" d="M70.425,331.875H61.08a.938.938,0,0,1,0-1.875h9.345A.938.938,0,0,1,70.425,331.875Z" transform="translate(-60.152 -318.75)" fill="#05365b"/>
          <path id="Path_90" data-name="Path 90" d="M186.23,423.875h-5.625a.938.938,0,0,1,0-1.875h5.625A.938.938,0,0,1,186.23,423.875Z" transform="translate(-172.207 -405)" fill="#05365b"/>
        </g>
        <path id="Path_91" data-name="Path 91" d="M276.256,331.8c.638.637,1.313,1.313,1.931,1.95a.07.07,0,0,1,0,.113l-.038.038a.873.873,0,0,1-.375.225l-3.994,1.331a.906.906,0,0,1-.956-.206v-.019Z" transform="translate(-255.774 -311.063)" fill="#fec478"/>
        <path id="Path_92" data-name="Path 92" d="M434.6,164.774l-.956.975-.675.656a.906.906,0,0,1-1.312,0l-1.331-1.331L434.6,160.8A2.8,2.8,0,0,1,434.6,164.774Z" transform="translate(-403.43 -150.749)" fill="#ed5b3a"/>
        <path id="Path_93" data-name="Path 93" d="M302.579,180.094l-.675.656c-3.712,3.694-2.475,2.456-5.813,5.794,0,.037-1.331,1.369-1.35,1.387a.873.873,0,0,1-.375.225l-3.844-3.844a.875.875,0,0,1,.225-.375c.019-.019,1.35-1.35,1.387-1.35,2.437-2.437,1.237-1.219,5.794-5.812l.656-.675Z" transform="translate(-272.365 -165.094)" fill="#b53023"/>
        <path id="Path_94" data-name="Path 94" d="M331.548,210.187l-.675.656c-3.712,3.694-2.475,2.456-5.813,5.794,0,.037-1.331,1.369-1.35,1.387a.873.873,0,0,1-.375.225l-1.913-1.913,8.138-8.137Z" transform="translate(-301.334 -195.188)" fill="#9b1812"/>
        <g id="Group_20" data-name="Group 20" transform="translate(12.158 9.375)">
          <path id="Path_95" data-name="Path 95" d="M196.4,331.875h-1.875V330H196.4A.938.938,0,0,1,196.4,331.875Z" transform="translate(-194.525 -318.75)" fill="#08476b"/>
          <path id="Path_96" data-name="Path 96" d="M196.4,271.875h-1.875V270H196.4A.938.938,0,0,1,196.4,271.875Z" transform="translate(-194.525 -262.5)" fill="#08476b"/>
          <path id="Path_97" data-name="Path 97" d="M196.4,211.875h-1.875V210H196.4A.938.938,0,0,1,196.4,211.875Z" transform="translate(-194.525 -206.25)" fill="#08476b"/>
          <path id="Path_98" data-name="Path 98" d="M200.15,423.875h-5.625V422h5.625A.938.938,0,0,1,200.15,423.875Z" transform="translate(-194.525 -405)" fill="#08476b"/>
          <path id="Path_99" data-name="Path 99" d="M200.15,151.875h-5.625V150h5.625A.938.938,0,0,1,200.15,151.875Z" transform="translate(-194.525 -150)" fill="#08476b"/>
        </g>
      </g>
    </g>
  </g>
</svg>
