<svg xmlns="http://www.w3.org/2000/svg" width="32" height="32" viewBox="0 0 32 32">
  <g id="Group_29" data-name="Group 29" transform="translate(-254 -151)">
    <g id="job" transform="translate(-284 -1)">
      <rect id="Rectangle_12" data-name="Rectangle 12" width="32" height="32" transform="translate(538 152)" fill="none"/>
      <g id="suitcase" transform="translate(538 114.581)">
        <g id="Group_11" data-name="Group 11" transform="translate(9.433 41.927)">
          <rect id="Rectangle_10" data-name="Rectangle 10" width="2" height="3" transform="translate(-0.433 0.492)" fill="#890606"/>
          <rect id="Rectangle_11" data-name="Rectangle 11" width="2" height="3" transform="translate(11.567 0.492)" fill="#890606"/>
        </g>
        <path id="Path_27" data-name="Path 27" d="M164.387,42.271c0,.465-.465.826-1.187.826H153.187c-.774,0-1.187-.361-1.187-.826V40.826c0-.516.465-.826,1.187-.826h9.961c.774,0,1.239.31,1.239.826Z" transform="translate(-142.194)" fill="#ed5b3a"/>
        <path id="Path_28" data-name="Path 28" d="M163.2,40H153.187c-.723,0-1.187.31-1.187.826v.052a24.552,24.552,0,0,0,6.194.671,22.115,22.115,0,0,0,6.194-.723h0C164.387,40.31,163.923,40,163.2,40Z" transform="translate(-142.194)" fill="#f48b56"/>
        <path id="Path_29" data-name="Path 29" d="M32,140.077a1.608,1.608,0,0,1-1.6,1.6H1.6a1.608,1.608,0,0,1-1.6-1.6V121.6A1.608,1.608,0,0,1,1.6,120H30.4a1.608,1.608,0,0,1,1.6,1.6v18.477Z" transform="translate(0 -74.839)" fill="#08476b"/>
        <path id="Path_30" data-name="Path 30" d="M1.6,121.548A1.565,1.565,0,0,1,3.2,120H31.794a1.7,1.7,0,0,1,1.7,1.6v18.529a1.657,1.657,0,0,1-1.7,1.548H19.045" transform="translate(-1.497 -74.839)" fill="#05365b"/>
        <path id="Path_31" data-name="Path 31" d="M16,172.284c7.226,0,13.419-2.529,16-6.039v-4.8A1.576,1.576,0,0,0,30.3,160H1.7A1.576,1.576,0,0,0,0,161.445v4.8C2.581,169.806,8.774,172.284,16,172.284Z" transform="translate(0 -112.258)" fill="#002c47"/>
        <path id="Path_32" data-name="Path 32" d="M16,133.2c7.226,0,13.419-2.529,16-6.039v-4.8a1.7,1.7,0,0,0-1.7-1.6H1.6A1.533,1.533,0,0,0,0,122.311v4.8C2.581,130.672,8.774,133.2,16,133.2Z" transform="translate(0 -75.549)" fill="#2072a0"/>
        <path id="Path_33" data-name="Path 33" d="M38.452,132.439c7.226,0,13.419-2.477,16-6.039v-4.8a1.608,1.608,0,0,0-1.6-1.6H24" transform="translate(-22.452 -74.839)" fill="#195f8e"/>
        <path id="Path_34" data-name="Path 34" d="M220.877,292.4c0,.413-.31.929-.774.929h-2.426a1.038,1.038,0,0,1-.877-.929v-5.11c0-.413.31-.1.774-.1H220.1c.465,0,.774-.258.774.1Z" transform="translate(-202.813 -231.132)" fill="#002c47"/>
        <path id="Path_35" data-name="Path 35" d="M220.877,275.04c0,.413-.31.516-.774.516h-2.529c-.465,0-.774-.1-.774-.516v-5.11c0-.413.31-.052.774-.052H220.1c.465,0,.774-.361.774.052Z" transform="translate(-202.813 -214.911)" fill="#ed5b3a"/>
        <path id="Path_36" data-name="Path 36" d="M216,269.93c0-.413.31-.052.774-.052H219.3c.465,0,.774-.361.774.052v5.11c0,.413-.31.516-.774.516" transform="translate(-202.065 -214.911)" fill="#dd4228"/>
        <path id="Path_37" data-name="Path 37" d="M234.065,289.5c0,.206-.052.206-.31.206H232.31c-.258,0-.31,0-.31-.206v-3.458c0-.206.155.052.465.052h1.187c.258,0,.413-.258.413-.052Z" transform="translate(-217.032 -230.091)" fill="#b53023"/>
        <path id="Path_38" data-name="Path 38" d="M232,286.039c0-.206.258.052.516.052H233.6c.258,0,.465-.258.465-.052V289.5c0,.206-.1.206-.413.206" transform="translate(-217.032 -230.091)" fill="#9b1812"/>
      </g>
    </g>
  </g>
</svg>
