<svg xmlns="http://www.w3.org/2000/svg" width="32" height="32" viewBox="0 0 32 32">
  <g id="Group_32" data-name="Group 32" transform="translate(-555 -152)">
    <g id="manager" transform="translate(252 49)">
      <rect id="Rectangle_16" data-name="Rectangle 16" width="32" height="32" transform="translate(303 103)" fill="none"/>
      <g id="man" transform="translate(233.973 103.003)">
        <path id="Path_62" data-name="Path 62" d="M226.738,369.2l.673-1.792-2.064-1.519-2.071,1.524.748,1.786Z" transform="translate(-140.115 -343.027)" fill="#9b1812"/>
        <path id="Path_63" data-name="Path 63" d="M221.984,418.858l.039.094-.924,5.727h4.489l-.925-5.732.033-.089Z" transform="translate(-138.075 -392.682)" fill="#ed5b3a"/>
        <path id="Path_64" data-name="Path 64" d="M187.3,351.337l.935-5.8-.9-2.158-2.9-2.756L185,344.76l1.842,6.577Z" transform="translate(-103.696 -319.34)" fill="#d2d2d7"/>
        <path id="Path_65" data-name="Path 65" d="M270.174,350.184l1.863-6.653.568-4.134-3.016,2.825-.815,2.171.934,5.791Z" transform="translate(-182.769 -318.187)" fill="#e4e4ea"/>
        <path id="Path_66" data-name="Path 66" d="M180.488,315.294a.688.688,0,0,0,1.092-.155l1.9-3.907-2.453-1.619-.579,1.043-2.157,2.24-2.1-2.045-.407-1.414-2.722,1.8,1.856,3.815a.708.708,0,0,0,1.145.248l2.207-1.624,2.1,1.548C180.409,315.239,180.446,315.263,180.488,315.294Z" transform="translate(-93.04 -290.098)" fill="#f5f5f7"/>
        <path id="Path_67" data-name="Path 67" d="M145.8,0h-.576a7.14,7.14,0,0,0-7.132,7.132v3.346s1.624-.161,1.823-.948h0a.894.894,0,0,0,.166-.254c.921-.028,5.223-.061,7.68-3.028a4.85,4.85,0,0,0,3.194,2.993.907.907,0,0,0,.169.278l-.016.013c.2.787,1.823.948,1.823.948V7.132A7.14,7.14,0,0,0,145.8,0Zm5.377,9.017.069-.05h.01l-.112.083Zm-.035.021.008-.024.024-.047h.01l-.028.059Zm-.189.146,0,0,.176-.127-.041.04-.129.1Zm.145-.041-.055.114h0l-.008,0,0,0,.09-.178,0,0Z" transform="translate(-60.252 -0.001)" fill="#694b4b"/>
        <path id="Path_68" data-name="Path 68" d="M139.347,8.972V7.131A7.14,7.14,0,0,1,146.138.008C146.025,0,145.911,0,145.8,0h-.576a7.14,7.14,0,0,0-7.132,7.132v3.346a4.082,4.082,0,0,0,1.257-.35V8.972Z" transform="translate(-60.252)" fill="#563b3b"/>
        <path id="Path_69" data-name="Path 69" d="M344.346,150.5a.9.9,0,0,0-1.165.857v2.559a.9.9,0,0,0,1.165.857,2.229,2.229,0,0,0,.5-.23,4.465,4.465,0,0,1,.507-.426,2.235,2.235,0,0,0-1.009-3.617Z" transform="translate(-252.526 -141.053)" fill="#fbcb99"/>
        <path id="Path_70" data-name="Path 70" d="M129.423,150.627a.9.9,0,0,0-.8-.134,2.238,2.238,0,0,0,0,4.273.9.9,0,0,0,1.165-.857V151.35A.9.9,0,0,0,129.423,150.627Z" transform="translate(-49.903 -141.05)" fill="#edba89"/>
        <path id="Path_71" data-name="Path 71" d="M218.513,273.3a.9.9,0,0,0-.659-.248h-.03a.913.913,0,0,0-.163.021,4.842,4.842,0,0,1-1.05.116h-1.1a4.848,4.848,0,0,1-1.081-.123.9.9,0,0,0-1.1.875v2.621a.9.9,0,0,0,.27.693l1.8,1.757a.9.9,0,0,0,.626.254h.015a.9.9,0,0,0,.632-.275l1.859-1.929a.9.9,0,0,0,.251-.623v-2.491A.9.9,0,0,0,218.513,273.3Z" transform="translate(-130.792 -255.977)" fill="#fbcb99"/>
        <path id="Path_72" data-name="Path 72" d="M216.217,278.758l-1.8-1.757a.9.9,0,0,1-.27-.693v-2.621a.9.9,0,0,1,.244-.614.9.9,0,0,0-1.052.883v2.621a.9.9,0,0,0,.27.693l1.8,1.757a.9.9,0,0,0,.626.254h.015a.9.9,0,0,0,.632-.275l.008-.008A.894.894,0,0,1,216.217,278.758Z" transform="translate(-130.794 -255.996)" fill="#edba89"/>
        <path id="Path_73" data-name="Path 73" d="M174.752,100.934a3.136,3.136,0,0,1-.311-.138,4.635,4.635,0,0,1-2.387-2.166.617.617,0,0,1-.045-.072.3.3,0,0,0-.461-.122h0a12.754,12.754,0,0,1-4.228,2.08,13.2,13.2,0,0,1-1.407.331,10.9,10.9,0,0,1-1.409.178.9.9,0,0,0-.834.9v3.664a5.291,5.291,0,0,0,5.285,5.285h1.1a5.291,5.291,0,0,0,5.285-5.285v-3.81A.9.9,0,0,0,174.752,100.934Z" transform="translate(-84.233 -92.224)" fill="#fbcb99"/>
        <path id="Path_74" data-name="Path 74" d="M164.746,105.584V101.92a.9.9,0,0,1,.833-.9,10.906,10.906,0,0,0,1.409-.178,13.2,13.2,0,0,0,1.407-.331,13.037,13.037,0,0,0,3.737-1.726q-.045-.084-.08-.16a.609.609,0,0,1-.045-.072.3.3,0,0,0-.461-.122h0a12.754,12.754,0,0,1-4.228,2.08,13.194,13.194,0,0,1-1.407.331,10.9,10.9,0,0,1-1.409.178.9.9,0,0,0-.834.9v3.664a5.291,5.291,0,0,0,5.285,5.285h1.077A5.291,5.291,0,0,1,164.746,105.584Z" transform="translate(-84.232 -92.223)" fill="#edba89"/>
        <g id="Group_17" data-name="Group 17" transform="translate(73.821 20.8)">
          <path id="Path_75" data-name="Path 75" d="M74.981,344.03h8.753l-3.136-11.2-3.235,1.348,0,0a5.645,5.645,0,0,0-3.537,5.478v3.211A1.105,1.105,0,0,0,74.981,344.03Z" transform="translate(-73.821 -332.833)" fill="#195f8e"/>
          <path id="Path_76" data-name="Path 76" d="M291.51,343.672v-3.25a5.669,5.669,0,0,0-3.542-5.48l-3.113-1.3-3.122,11.147h8.62A1.1,1.1,0,0,0,291.51,343.672Z" transform="translate(-268.739 -333.594)" fill="#195f8e"/>
        </g>
        <g id="Group_18" data-name="Group 18" transform="translate(73.821 20.8)">
          <path id="Path_77" data-name="Path 77" d="M80.6,332.834l-3.235,1.348,0,0a5.645,5.645,0,0,0-3.537,5.478v3.211a1.105,1.105,0,0,0,1.16,1.159h.145v-4.37a5.644,5.644,0,0,1,3.537-5.478l0,0,2.066-.861Z" transform="translate(-73.821 -332.834)" fill="#08476b"/>
          <path id="Path_78" data-name="Path 78" d="M364.627,437.421v-4.464a.508.508,0,1,0-1.015,0v4.464Z" transform="translate(-345.501 -426.223)" fill="#08476b"/>
          <path id="Path_79" data-name="Path 79" d="M135.2,437.421v-4.464a.508.508,0,1,0-1.015,0v4.464Z" transform="translate(-130.409 -426.223)" fill="#08476b"/>
        </g>
        <path id="Path_80" data-name="Path 80" d="M247.216,195.945a.338.338,0,0,1,0,.677h-.865a.339.339,0,0,1-.338-.338v-1.649a.338.338,0,1,1,.677,0v1.311Z" transform="translate(-161.431 -182.154)" fill="#edba89"/>
      </g>
    </g>
  </g>
</svg>
