<svg xmlns="http://www.w3.org/2000/svg" width="227.145" height="163.54" viewBox="0 0 227.145 163.54">
  <g id="Group_9731" data-name="Group 9731" transform="translate(-120 -112.873)">
    <g id="air" transform="translate(121 97.429)">
      <path id="Path_22251" data-name="Path 22251" d="M336.02,339.226V290.683H302.8v20.556" transform="translate(-169.647 -194.12)" fill="#3cc9d7" stroke="#fff" stroke-width="2"/>
      <path id="Path_22254" data-name="Path 22254" d="M243.311,154.012V139.387H226.668v26.85" transform="translate(-126.995 -109.354)" fill="#3cc9d7"/>
      <path id="Path_22257" data-name="Path 22257" d="M210.354,175.248l49.835-36.5,53.621,39.389V158.162l-53.621-39.389L206.57,158.162v13.769" transform="translate(-110.429 -94.868)" fill="#3cc9d7"/>
      <path id="Path_22258" data-name="Path 22258" d="M160.1,310.221a4.4,4.4,0,0,1-.857-.088,4.548,4.548,0,0,1-.823-.251,4.758,4.758,0,0,1-.761-.405,4.248,4.248,0,0,1-1.213-1.213,4.765,4.765,0,0,1-.405-.761,4.547,4.547,0,0,1-.251-.823,4.435,4.435,0,0,1,1.2-3.971,4.443,4.443,0,0,1,1.429-.95,4.548,4.548,0,0,1,.823-.251,4.388,4.388,0,0,1,1.719,0,4.548,4.548,0,0,1,.823.251,4.442,4.442,0,0,1,1.429.95,4.374,4.374,0,0,1,1.2,3.971,4.545,4.545,0,0,1-.251.823,4.76,4.76,0,0,1-.405.761,5.188,5.188,0,0,1-.544.668,4.508,4.508,0,0,1-.668.545,4.761,4.761,0,0,1-.761.405,4.548,4.548,0,0,1-.823.251A4.409,4.409,0,0,1,160.1,310.221Zm0,0" transform="translate(-87.24 -200.137)" stroke="#fff" stroke-width="2"/>
      <path id="Path_22259" data-name="Path 22259" d="M10,216.066H39.462V286.2H10Zm0,0" transform="translate(-5.603 -152.314)" fill="#3cc9d7"/>
      <path id="Path_22260" data-name="Path 22260" d="M225.137,251.028a18.918,18.918,0,0,0-18.929-18.118h-1.276V181.1l1.151.845a4.4,4.4,0,0,0,7-3.544V156.456a4.393,4.393,0,0,0-1.793-3.544l-58.924-43.286a4.394,4.394,0,0,0-5.206,0l-26.444,19.426v-6.818a4.4,4.4,0,0,0-4.4-4.4H99.672a4.4,4.4,0,0,0-4.4,4.4v25.5l-7.043,5.175a4.4,4.4,0,0,0-1.793,3.544v8.432c-14.4-6.256-35.478-5.806-48.182-4.772v-4.164a4.4,4.4,0,0,0-4.4-4.4H4.4a4.4,4.4,0,0,0-4.4,4.4V226.09a4.4,4.4,0,0,0,4.4,4.4H33.859a4.4,4.4,0,0,0,4.4-4.4V215.473h6.4c.663,1.713,1.907,5.773,3.465,14.824,4.421,25.7,20.047,39.859,44,39.859l114.384.029a18.637,18.637,0,0,0,18.632-19.158Zm-29-18.118H170.769V188.762a4.4,4.4,0,0,0-4.4-4.4H133.15a4.4,4.4,0,0,0-4.4,4.4v10.89l-27.238-23.746,48.242-35.335,46.38,34.069Zm-34.689,0A18.53,18.53,0,0,0,155,222.538l-17.455-15.219V193.162h24.428V232.91ZM104.071,126.631h7.848v8.881l-7.848,5.765Zm-8.838,32.051,54.527-40.055,54.527,40.055v11.036l-51.923-38.144a4.4,4.4,0,0,0-5.2,0L95.233,169.607ZM29.462,221.693H8.795V160.35H29.462Zm184.1,36.719a9.767,9.767,0,0,1-7.055,2.979l-114.386-.029c-24.572,0-32.776-17.7-35.332-32.556a120.492,120.492,0,0,0-3.126-14.169c-.855-2.781-2.448-7.958-6.914-7.958H38.257V168.943c12.727-1.074,40.06-2.053,50.9,7.857.024.022.05.046.076.069l60.054,52.354c.046.041.093.081.141.118a9.844,9.844,0,0,1-12.28,15.389L86.906,203.98a4.4,4.4,0,0,0-5.541,6.831l50.269,40.768a18.5,18.5,0,0,0,11.61,4.09,19.01,19.01,0,0,0,2.09-.117,18.639,18.639,0,0,0,15.988-13.85h44.885a10.063,10.063,0,0,1,10.136,9.566,9.777,9.777,0,0,1-2.783,7.144Zm0,0" transform="translate(0 -92.201)" stroke="#fff" stroke-width="2"/>
    </g>
  </g>
</svg>
