<svg xmlns="http://www.w3.org/2000/svg" width="32" height="32" viewBox="0 0 32 32">
  <g id="Group_30" data-name="Group 30" transform="translate(-355 -151)">
    <g id="notifications" transform="translate(-202 112)">
      <rect id="Rectangle_13" data-name="Rectangle 13" width="32" height="32" transform="translate(557 39)" fill="none"/>
      <g id="bell" transform="translate(557.726 39)">
        <path id="Path_39" data-name="Path 39" d="M168.715,398.991a4.764,4.764,0,1,1-9.528,0l4.772-2.452Zm0,0" transform="translate(-148.77 -371.755)" fill="#002c47"/>
        <path id="Path_40" data-name="Path 40" d="M219.478,459.285a4.775,4.775,0,0,1-3.26,3.122,4.768,4.768,0,0,1-2.43-1.594.942.942,0,0,1,.74-1.528Zm0,0" transform="translate(-199.763 -430.579)" fill="#195f8e"/>
        <path id="Path_41" data-name="Path 41" d="M63.206,58.893,52.97,61.106,38.605,58.893a2.107,2.107,0,0,0,2.126-1.567c1.75-4.72-2.911-18.477,10.174-18.477S59.329,52.6,61.079,57.325a2.108,2.108,0,0,0,2.126,1.567Zm0,0" transform="translate(-35.723 -36.42)" fill="#195f8e"/>
        <path id="Path_42" data-name="Path 42" d="M29.864,361.94a2.382,2.382,0,0,1-2.382,2.382H2.882a2.382,2.382,0,0,1,0-4.763h24.6a2.382,2.382,0,0,1,2.382,2.382Zm0,0" transform="translate(0 -337.086)" fill="#08476b"/>
        <path id="Path_43" data-name="Path 43" d="M61.087,57.336H48.3a2.44,2.44,0,0,1-2.438-2.519c.18-5.829-.75-15.848,4.955-15.958C35.159,38.94,45.169,58.9,38.613,58.9h24.6a2.108,2.108,0,0,1-2.126-1.567Zm0,0" transform="translate(-35.731 -36.431)" fill="#08476b"/>
        <path id="Path_44" data-name="Path 44" d="M133.1,361.94a2.382,2.382,0,0,1-2.382,2.382H113a2.382,2.382,0,1,1,0-4.763h17.718a2.382,2.382,0,0,1,2.382,2.382Zm0,0" transform="translate(-103.238 -337.086)" fill="#195f8e"/>
        <path id="Path_45" data-name="Path 45" d="M201.415,2.61c.005-.06.007-.121.007-.182a2.428,2.428,0,1,0-4.856,0c0,.062,0,.122.007.182" transform="translate(-183.812)" fill="#ed5b3a"/>
        <g id="Group_12" data-name="Group 12" transform="translate(0.712 1.666)">
          <path id="Path_46" data-name="Path 46" d="M361.448,35.481a.49.49,0,0,1-.49-.49,9.422,9.422,0,0,0-1.732-5.75,6.369,6.369,0,0,0-1.739-1.659.49.49,0,0,1,.475-.856,7.158,7.158,0,0,1,2.016,1.885,10.394,10.394,0,0,1,1.96,6.38.49.49,0,0,1-.49.49Zm0,0" transform="translate(-335.152 -26.664)" fill="#e6e6e6"/>
          <path id="Path_47" data-name="Path 47" d="M419.444,35.611a.49.49,0,0,1-.49-.49,5.186,5.186,0,0,0-1.93-4.421.49.49,0,0,1,.528-.825,6.133,6.133,0,0,1,2.382,5.246.49.49,0,0,1-.49.49Zm0,0" transform="translate(-390.993 -29.603)" fill="#e6e6e6"/>
          <path id="Path_48" data-name="Path 48" d="M38.857,35.478a.49.49,0,0,1-.49-.49,10.4,10.4,0,0,1,1.959-6.38,7.157,7.157,0,0,1,2.016-1.885.49.49,0,0,1,.475.857,6.373,6.373,0,0,0-1.739,1.658,9.42,9.42,0,0,0-1.732,5.75A.49.49,0,0,1,38.857,35.478Zm0,0" transform="translate(-36.212 -26.662)" fill="#e6e6e6"/>
          <path id="Path_49" data-name="Path 49" d="M4.377,35.609a.49.49,0,0,1-.49-.49,6.134,6.134,0,0,1,2.382-5.246A.49.49,0,0,1,6.8,30.7a5.188,5.188,0,0,0-1.93,4.421.49.49,0,0,1-.49.49Zm0,0" transform="translate(-3.887 -29.601)" fill="#e6e6e6"/>
        </g>
      </g>
    </g>
  </g>
</svg>
