<svg xmlns="http://www.w3.org/2000/svg" width="256" height="256" viewBox="0 0 256 256">
  <g id="Group_9727" data-name="Group 9727" transform="translate(-1590 -67)">
    <g id="Group_9720" data-name="Group 9720">
      <rect id="Rectangle_3711" data-name="Rectangle 3711" width="256" height="256" transform="translate(1590 67)" fill="#fff"/>
      <g id="Group_2" data-name="Group 2" transform="translate(-11759 5914)">
        <g id="Group_9702" data-name="Group 9702" transform="translate(13382 -5814)">
          <g id="Group_9701" data-name="Group 9701" transform="translate(18.337 21.128)">
            <path id="Path_22301" data-name="Path 22301" d="M133.395,56.648H54.12a4.959,4.959,0,0,0-4.956,4.959V89.239A4.959,4.959,0,0,0,54.12,94.2h79.275a4.959,4.959,0,0,0,4.956-4.959V61.608A4.959,4.959,0,0,0,133.395,56.648Zm0,0" transform="translate(-49.164 -56.648)" fill="#3cc9d7"/>
          </g>
          <path id="Path_22307" data-name="Path 22307" d="M278.443,311.935c-.358.048-.72.089-1.083.125a40.254,40.254,0,1,1,1.083-.125Zm0,0" transform="translate(-135.726 -134.939)" fill="#3cc9d7"/>
          <path id="Path_22311" data-name="Path 22311" d="M341.277,299.7c0-36.81-45.629-54.415-70.274-26.931a40.267,40.267,0,0,0,3.057,56.885c25.773,23.121,67.217,4.9,67.217-29.954Zm-40.358,34.635a34.673,34.673,0,0,1-34.6-34.69c0-30.126,35.706-45.6,57.819-25.761,23.267,20.873,9.071,60.451-23.217,60.451Zm0,0" transform="translate(-163.458 -162.622)"/>
          <path id="Path_22312" data-name="Path 22312" d="M327.5,290.473a2.818,2.818,0,0,0-2.819,2.818v23.074H305.8a2.818,2.818,0,1,0,0,5.637h21.7a2.818,2.818,0,0,0,2.818-2.818V293.291a2.818,2.818,0,0,0-2.818-2.818Zm0,0" transform="translate(-189.979 -182.136)"/>
          <path id="Path_22313" data-name="Path 22313" d="M128.672,49.09H49.4a7.786,7.786,0,0,0-7.774,7.778V84.5A7.785,7.785,0,0,0,49.4,92.277h79.273a7.784,7.784,0,0,0,7.774-7.777V56.868a7.785,7.785,0,0,0-7.774-7.778ZM130.81,84.5a2.141,2.141,0,0,1-2.137,2.142H49.4A2.142,2.142,0,0,1,47.262,84.5V56.868A2.142,2.142,0,0,1,49.4,54.727h79.273a2.141,2.141,0,0,1,2.137,2.142Zm0,0" transform="translate(-26.1 -30.781)"/>
          <path id="Path_22314" data-name="Path 22314" d="M141.909,80.562H77.035a2.818,2.818,0,1,0,0,5.637h64.874a2.818,2.818,0,0,0,0-5.637Zm0,0" transform="translate(-46.535 -50.515)"/>
          <path id="Path_22315" data-name="Path 22315" d="M186.314,118.3H175.763a2.818,2.818,0,0,0,0,5.637h10.551a2.818,2.818,0,0,0,0-5.637Zm0,0" transform="translate(-108.442 -74.179)"/>
          <path id="Path_22316" data-name="Path 22316" d="M102.583,118.3H77.034a2.818,2.818,0,1,0,0,5.637h25.55a2.818,2.818,0,0,0,0-5.637Zm0,0" transform="translate(-46.535 -74.179)"/>
          <path id="Path_22317" data-name="Path 22317" d="M141.909,228.953H77.035a2.818,2.818,0,1,0,0,5.637h64.874a2.818,2.818,0,0,0,0-5.637Zm0,0" transform="translate(-46.535 -143.561)"/>
          <path id="Path_22318" data-name="Path 22318" d="M95.525,266.7H77.034a2.818,2.818,0,1,0,0,5.637H95.525a2.818,2.818,0,0,0,0-5.637Zm0,0" transform="translate(-46.535 -167.227)"/>
          <path id="Path_22319" data-name="Path 22319" d="M77.034,382.98h46.433a2.818,2.818,0,0,0,0-5.637H77.034a2.818,2.818,0,1,0,0,5.637Zm0,0" transform="translate(-46.535 -236.607)"/>
          <path id="Path_22320" data-name="Path 22320" d="M99.578,415.086H77.034a2.818,2.818,0,1,0,0,5.637H99.578a2.818,2.818,0,0,0,0-5.637Zm0,0" transform="translate(-46.535 -260.272)"/>
          <path id="Path_22321" data-name="Path 22321" d="M185,415.086H167.7a2.818,2.818,0,1,0,0,5.637H185a2.818,2.818,0,0,0,0-5.637Zm0,0" transform="translate(-103.387 -260.272)"/>
          <path id="Path_22322" data-name="Path 22322" d="M173.221,97.275a53.357,53.357,0,0,0-47.351-12.388V9.064A9.074,9.074,0,0,0,116.8,0H9.066A9.074,9.074,0,0,0,0,9.064V181.436A9.073,9.073,0,0,0,9.066,190.5H116.8a9.025,9.025,0,0,0,5.816-2.111,53.63,53.63,0,0,0,33.764-1.32,2.817,2.817,0,1,0-1.983-5.274,47.894,47.894,0,0,1-49.7-9.9c-31.249-29.441-10.683-82.658,32.881-82.658a47.822,47.822,0,0,1,26.275,87.731,2.817,2.817,0,1,0,3.108,4.7,53.471,53.471,0,0,0,6.256-84.39ZM92.949,166.552H23.3a2.142,2.142,0,0,1-2.137-2.142V136.779a2.142,2.142,0,0,1,2.137-2.142H84.123a53.506,53.506,0,0,0,8.826,31.915Zm11.76-71.7a53.718,53.718,0,0,0-13.98,16.352H23.3a2.143,2.143,0,0,1-2.137-2.142V81.434A2.142,2.142,0,0,1,23.3,79.293h79.273a2.141,2.141,0,0,1,2.137,2.142Zm15.526-8.383a52.931,52.931,0,0,0-9.889,4.547V81.434a7.785,7.785,0,0,0-7.774-7.778H23.3a7.786,7.786,0,0,0-7.774,7.778v27.632a7.786,7.786,0,0,0,7.774,7.777H88.03A53.125,53.125,0,0,0,84.675,129H23.3a7.786,7.786,0,0,0-7.774,7.777v27.632a7.786,7.786,0,0,0,7.774,7.778H97.251a53.534,53.534,0,0,0,16.379,12.674H9.066a3.431,3.431,0,0,1-3.431-3.427V9.064A3.43,3.43,0,0,1,9.066,5.637H116.8a3.43,3.43,0,0,1,3.431,3.427Zm0,0" transform="translate(0 0)"/>
        </g>
      </g>
    </g>
  </g>
</svg>
