<svg xmlns="http://www.w3.org/2000/svg" width="256" height="256" viewBox="0 0 256 256">
  <g id="Group_9729" data-name="Group 9729" transform="translate(-106 -464)">
    <g id="Group_9722" data-name="Group 9722">
      <rect id="Rectangle_3712" data-name="Rectangle 3712" width="256" height="256" transform="translate(106 464)" fill="#fff"/>
      <g id="Group_9716" data-name="Group 9716" transform="translate(-13544 6573)">
        <path id="Path_22324" data-name="Path 22324" d="M406.231,153.117V49.509h4.87L398.9,30.031l-12.2,19.478h4.87V153.117Z" transform="translate(13438.969 -6094.029)" fill="#3cc9d7"/>
        <path id="Path_22325" data-name="Path 22325" d="M162.669,246.094V206.5H146.159v57.183h-16.1V158.263h26.077v29.155h8a14.655,14.655,0,0,1,14.654,14.654v44.021Z" transform="translate(13601.588 -6175.281)" fill="#3cc9d7"/>
        <path id="Path_22329" data-name="Path 22329" d="M130.793,126.084h0a8.7,8.7,0,0,0,8.7,8.7H158.5a7.188,7.188,0,0,0,7.188-7.188h0a7.188,7.188,0,0,0-7.188-7.188H145.421v-7.786A20.516,20.516,0,0,0,124.9,92.109H110.578a20.516,20.516,0,0,0-20.516,20.516v18.505a15.1,15.1,0,0,0,15.1,15.1h25.628Z" transform="translate(13626.934 -6133.364)" fill="#45d8e6"/>
        <path id="Path_22330" data-name="Path 22330" d="M176.587,130.425H164.863V34.144h1.207a3.664,3.664,0,0,0,3.105-5.608l-12.2-19.478a3.664,3.664,0,0,0-6.21,0l-12.2,19.478a3.664,3.664,0,0,0,3.105,5.608h1.206v71a3.664,3.664,0,1,0,7.327,0V30.481a3.665,3.665,0,0,0-2.128-3.327l5.791-9.248,5.791,9.248a3.665,3.665,0,0,0-2.128,3.327v99.944H131.158a11,11,0,0,0-10.991,10.991v1.363a10.939,10.939,0,0,0-3.664-.63H100.04V101.792A18.339,18.339,0,0,0,81.722,83.473H77.39V79.009a12.294,12.294,0,0,0,5.041,1.078h19.007a10.852,10.852,0,1,0,0-21.7h-9.42V54.262A24.218,24.218,0,0,0,74.338,30.976a16.947,16.947,0,0,0,3.715-10.6V17.034a17.033,17.033,0,1,0-34.066,0v3.342A16.944,16.944,0,0,0,47.579,30.82,24.221,24.221,0,0,0,29.332,54.262V73.246A18.318,18.318,0,0,0,43.986,91.17v20.754a3.664,3.664,0,0,0,7.327,0V90.8H81.722a11,11,0,0,1,10.991,10.991v40.357H83.92V106.215a3.664,3.664,0,0,0-3.664-3.664H63.747a3.664,3.664,0,0,0-3.664,3.664v53.519h-8.77V141.782a3.664,3.664,0,1,0-7.327,0v17.952h-33A11,11,0,0,0,0,170.725v13.189a3.664,3.664,0,0,0,3.664,3.664h180.25a3.664,3.664,0,0,0,3.664-3.664v-42.5A11,11,0,0,0,176.587,130.425ZM51.313,17.033a9.706,9.706,0,0,1,19.412,0v3.342a9.706,9.706,0,0,1-19.412,0ZM47.65,54.318a3.664,3.664,0,0,0-3.664,3.664v25.6a10.978,10.978,0,0,1-7.327-10.339V54.262A16.872,16.872,0,0,1,53.512,37.409H67.838A16.872,16.872,0,0,1,84.691,54.262v7.786a3.664,3.664,0,0,0,3.664,3.664h13.084a3.525,3.525,0,1,1,0,7.049H82.431a5.047,5.047,0,0,1-5.041-5.04V57.982a3.664,3.664,0,1,0-7.327,0V83.473H51.313V57.982A3.664,3.664,0,0,0,47.65,54.318Zm28.943,55.56v32.27H71.074a10.939,10.939,0,0,0-3.664.63v-32.9ZM7.327,170.725a3.668,3.668,0,0,1,3.664-3.664H56.42a3.668,3.668,0,0,1,3.664,3.664v9.525H7.327Zm60.083-17.585a3.668,3.668,0,0,1,3.664-3.664H116.5a3.668,3.668,0,0,1,3.664,3.664V180.25H67.411ZM180.25,180.25H127.494V141.416a3.668,3.668,0,0,1,3.664-3.664h45.429a3.668,3.668,0,0,1,3.664,3.664Z" transform="translate(13684 -6075)" stroke="#fff" stroke-width="1.5"/>
        <path id="Path_22331" data-name="Path 22331" d="M123.724,341.717a3.665,3.665,0,1,0-2.59-1.073A3.691,3.691,0,0,0,123.724,341.717Z" transform="translate(13607.925 -6286.882)" stroke="#fff" stroke-width="0.8"/>
        <path id="Path_22332" data-name="Path 22332" d="M396.254,321.253a3.661,3.661,0,1,0-2.59,1.074A3.689,3.689,0,0,0,396.254,321.253Z" transform="translate(13436.882 -6274.596)" stroke="#fff" stroke-width="0.8"/>
      </g>
    </g>
  </g>
</svg>
