<svg xmlns="http://www.w3.org/2000/svg" width="185.795" height="185.545" viewBox="0 0 185.795 185.545">
  <g id="Group_9730" data-name="Group 9730" transform="translate(-511.75 -102)">
    <path id="Path_22243" data-name="Path 22243" d="M92.829,0A44.88,44.88,0,0,0,48,44.829V68.738h2.989A11.955,11.955,0,0,1,62.943,56.784V44.829S74.9,47.818,92.829,47.818s29.886-2.989,29.886-2.989V56.784A11.955,11.955,0,0,1,134.67,68.738h2.989V44.829A44.88,44.88,0,0,0,92.829,0Zm0,0" transform="translate(481.932 102)" fill="#3cc9d7"/>
    <path id="Path_22244" data-name="Path 22244" d="M352,400h29.886v29.886H352Zm0,0" transform="translate(291.5 -148.569)" fill="#3cc9d7"/>
    <path id="Path_22245" data-name="Path 22245" d="M379.863,241.932H344V224h35.864Zm0,0" transform="translate(296.511 -38.318)" fill="#3cc9d7"/>
    <path id="Path_22246" data-name="Path 22246" d="M125.977,162.989A2.989,2.989,0,1,1,122.989,160,2.989,2.989,0,0,1,125.977,162.989Zm0,0" transform="translate(436.83 1.773)" stroke="#000" stroke-width="0.5"/>
    <path id="Path_22247" data-name="Path 22247" d="M205.977,162.989A2.989,2.989,0,1,1,202.989,160,2.989,2.989,0,0,1,205.977,162.989Zm0,0" transform="translate(386.716 1.773)" stroke="#000" stroke-width="0.5"/>
    <path id="Path_22248" data-name="Path 22248" d="M159.909,216h-5.977a5.977,5.977,0,0,1-11.955,0H136a11.955,11.955,0,1,0,23.909,0Zm0,0" transform="translate(426.807 -33.307)" stroke="#000" stroke-width="0.5"/>
    <path id="Path_22249" data-name="Path 22249" d="M176.329,193.316V146.467H184.9l-15.938-23.909h-45.04l-15.938,23.909h8.569v43.589a20.92,20.92,0,0,0-5.338-2.692L80.692,177.186v-6.192a32.976,32.976,0,0,0,13.714-18.73,14.9,14.9,0,0,0,1.229-29.4V109.77l-3.71.922a134.5,134.5,0,0,1-29.165,2.9,134.079,134.079,0,0,1-29.162-2.9l-3.712-.919v13.09a14.9,14.9,0,0,0,1.229,29.4,32.948,32.948,0,0,0,13.714,18.73v6.192l-30.523,10.18A20.883,20.883,0,0,0,0,207.208v25.929H83.681v20.92h95.636V206.239h5.977v-7.693ZM95.636,143.478V129.085a8.911,8.911,0,0,1-.125,16.871c.063-.822.125-1.642.125-2.478ZM23.909,137.5a8.954,8.954,0,0,1,5.977-8.416v14.393c0,.836.063,1.656.126,2.478a8.951,8.951,0,0,1-6.1-8.455Zm103.213-8.966h38.642l7.971,11.955H119.154Zm43.23,17.932v43.361l-23.909-13.945-23.909,13.945V146.467ZM85.2,184.993,76.742,204.04l-9.755-9.755,11.524-11.524ZM35.863,143.478V117.265a150.543,150.543,0,0,0,26.9,2.3,150.543,150.543,0,0,0,26.9-2.3v26.213a26.9,26.9,0,0,1-53.8,0ZM47.011,182.76l11.524,11.524-9.755,9.755-8.462-19.047Zm12.762,44.4H5.977V207.208a14.923,14.923,0,0,1,10.218-14.176L34.62,186.89l12.236,27.525L59.772,201.5ZM50.806,178.1v-4.035a32.43,32.43,0,0,0,23.909,0V178.1L62.761,190.058Zm62.761,69.976H101.613V236.125h11.955Zm0-17.932H95.636V248.08H89.659V226.395l23.909-7.172Zm0-17.167-29.886,8.966v5.213H65.749V201.5l12.916,12.916L90.9,186.89l18.428,6.145a14.923,14.923,0,0,1,4.067,2.122l-5.807,3.388v7.693h5.977Zm59.773,35.1h-53.8V206.239h53.8Zm-56.829-47.818L146.442,182.8l29.932,17.462Zm0,0" transform="translate(512.001 33.238)" stroke="#000" stroke-width="0.5"/>
  </g>
</svg>
