<svg xmlns="http://www.w3.org/2000/svg" width="256" height="256" viewBox="0 0 256 256">
  <g id="Group_9726" data-name="Group 9726" transform="translate(-1219 -67)">
    <g id="Group_9719" data-name="Group 9719">
      <g id="Rectangle_3710" data-name="Rectangle 3710" transform="translate(1219 67)" fill="#fff" stroke="#fff" stroke-width="1.2">
        <rect width="256" height="256" stroke="none"/>
        <rect x="0.6" y="0.6" width="254.8" height="254.8" fill="none"/>
      </g>
      <g id="reports" transform="translate(1254 102)">
        <rect id="Rectangle_3706" data-name="Rectangle 3706" width="22.954" height="79.294" transform="translate(121.124 103.387)" fill="#3cc9d7"/>
        <rect id="Rectangle_3708" data-name="Rectangle 3708" width="23.238" height="102.848" transform="translate(159.038 79.428)" fill="#3cc9d7"/>
        <path id="Path_22292" data-name="Path 22292" d="M145.576,64.729v39.732h39.732A39.732,39.732,0,0,0,145.576,64.729Z" transform="translate(-92.717 -41.226)" fill="#3cc9d7"/>
        <path id="Path_22293" data-name="Path 22293" d="M182.277,75.8H159.038a3.631,3.631,0,0,0-3.631,3.631V97.765a3.631,3.631,0,1,0,7.262,0V83.059h15.976v95.587H162.669V125a3.631,3.631,0,0,0-7.262,0v53.649h-7.262V103.484a3.631,3.631,0,0,0-3.631-3.631H121.276a3.631,3.631,0,0,0-3.631,3.631v75.162h-7.262V128.9a3.631,3.631,0,0,0-3.631-3.631H83.513a3.631,3.631,0,0,0-3.631,3.631v49.745H72.62V149.734a3.631,3.631,0,0,0-3.631-3.631H45.751a3.631,3.631,0,0,0-3.631,3.631v28.912H10.893a3.635,3.635,0,0,1-3.631-3.631V10.893a3.635,3.635,0,0,1,3.631-3.631h93.671V31.228a10.905,10.905,0,0,0,10.893,10.893h23.965v44.66a3.631,3.631,0,1,0,7.262,0V38.49a3.632,3.632,0,0,0-1.064-2.567L110.763,1.064A3.632,3.632,0,0,0,108.2,0h-97.3A10.905,10.905,0,0,0,0,10.893V175.015a10.905,10.905,0,0,0,10.893,10.893H182.277a3.631,3.631,0,0,0,3.631-3.631V79.428A3.631,3.631,0,0,0,182.277,75.8ZM111.826,31.228V12.4l22.461,22.461h-18.83A3.635,3.635,0,0,1,111.826,31.228ZM49.382,178.646V153.365H65.358v25.281Zm37.763,0V132.532h15.976v46.114Zm37.763,0V107.115h15.976v71.531Z" transform="translate(0 0)" stroke="#fff" stroke-width="1.2"/>
        <path id="Path_22294" data-name="Path 22294" d="M431.631,302.152a3.632,3.632,0,1,0-2.567-1.064A3.659,3.659,0,0,0,431.631,302.152Z" transform="translate(-272.593 -187.815)" stroke="#fff" stroke-width="1.5"/>
        <path id="Path_22295" data-name="Path 22295" d="M87,54.729a3.631,3.631,0,0,0-3.631,3.631v6.532A33.4,33.4,0,1,0,120.2,101.723h6.531a3.631,3.631,0,0,0,3.631-3.631A43.412,43.412,0,0,0,87,54.729Zm0,69.5a26.135,26.135,0,0,1-3.631-52.017V98.092A3.631,3.631,0,0,0,87,101.723h25.883A26.175,26.175,0,0,1,87,124.226Zm3.631-29.765V62.172a36.17,36.17,0,0,1,32.288,32.289H90.629Z" transform="translate(-34.139 -34.857)" stroke="#fff" stroke-width="1.5"/>
        <path id="Path_22296" data-name="Path 22296" d="M130.614,297.881a3.631,3.631,0,0,0-3.631-3.631H57.631a3.631,3.631,0,0,0,0,7.262h69.352A3.631,3.631,0,0,0,130.614,297.881Z" transform="translate(-34.393 -187.407)" stroke="#fff" stroke-width="1.5"/>
        <path id="Path_22297" data-name="Path 22297" d="M57.631,342.5a3.631,3.631,0,1,0,0,7.262H80.87a3.631,3.631,0,0,0,0-7.262Z" transform="translate(-34.393 -218.138)" stroke="#fff" stroke-width="1.5"/>
        <path id="Path_22298" data-name="Path 22298" d="M169.144,343.564a3.629,3.629,0,1,0,2.567-1.064A3.643,3.643,0,0,0,169.144,343.564Z" transform="translate(-107.05 -218.138)" stroke="#fff" stroke-width="1.5"/>
      </g>
    </g>
  </g>
</svg>
