<svg xmlns="http://www.w3.org/2000/svg" width="256" height="256" viewBox="0 0 256 256">
  <g id="Group_9725" data-name="Group 9725" transform="translate(-848 -67)">
    <g id="Group_9718" data-name="Group 9718">
      <rect id="Rectangle_3710" data-name="Rectangle 3710" width="256" height="256" transform="translate(848 67)" fill="#fff"/>
      <g id="Group_1" data-name="Group 1" transform="translate(-13214 7251)">
        <g id="job" transform="translate(14086 -7160)">
          <path id="Path_22277" data-name="Path 22277" d="M389.814,277.106H372.185a22.143,22.143,0,0,0-22.143,22.144v8.2h61.916v-8.2A22.144,22.144,0,0,0,389.814,277.106Z" transform="translate(-207.416 -164.202)" fill="#3cc9d7"/>
          <path id="Path_22279" data-name="Path 22279" d="M32.144,277.106H49.772A22.144,22.144,0,0,1,71.916,299.25v8.2H10v-8.2A22.144,22.144,0,0,1,32.144,277.106Z" transform="translate(-5.925 -164.202)" fill="#3cc9d7"/>
          <path id="Path_22281" data-name="Path 22281" d="M216.462,280.568h0a29.22,29.22,0,0,0-27.188,18.52,39.9,39.9,0,0,0,54.376,0A29.22,29.22,0,0,0,216.462,280.568Z" transform="translate(-112.153 -166.253)" fill="#3cc9d7"/>
          <path id="Path_22282" data-name="Path 22282" d="M187.81,172.371a17.046,17.046,0,0,0,2.921-9.561v-3.268A17.137,17.137,0,0,0,161.486,147.4a60.308,60.308,0,0,0-114.355,0,17.137,17.137,0,0,0-29.245,12.137v3.268a17.046,17.046,0,0,0,2.921,9.561A26.262,26.262,0,0,0,0,198.024v8.2A4.075,4.075,0,0,0,4.075,210.3H25.262a4.075,4.075,0,1,0,0-8.149H8.149v-4.129a18.09,18.09,0,0,1,18.069-18.069H45.5a59.963,59.963,0,0,0,8,19.081l-46.49,46.49A15.27,15.27,0,0,0,28.61,267.121L54.24,241.49a4.075,4.075,0,0,0-5.763-5.763l-25.63,25.631a7.121,7.121,0,1,1-10.07-10.07l45.638-45.637a60.275,60.275,0,0,0,104.7-25.7H182.4a18.09,18.09,0,0,1,18.069,18.069v4.129h-38.3a4.075,4.075,0,1,0,0,8.149h42.375a4.075,4.075,0,0,0,4.075-4.075v-8.2A26.262,26.262,0,0,0,187.81,172.371Zm-23.223-12.829a9,9,0,1,1,17.994,0v3.268a9,9,0,0,1-17.994,0Zm-138.551,0a9,9,0,1,1,17.994,0v3.268a9,9,0,0,1-17.994,0S26.036,159.542,26.036,159.542Zm78.273,59.191a52.154,52.154,0,1,1,52.154-52.154A52.213,52.213,0,0,1,104.308,218.732Z" transform="translate(0 -62.976)" stroke="#fff" stroke-width="0.8"/>
          <path id="Path_22283" data-name="Path 22283" d="M192.005,146.275a43.984,43.984,0,0,0-30.177,76,4.073,4.073,0,0,0,.473.44,43.922,43.922,0,0,0,59.408,0,4.036,4.036,0,0,0,.473-.44,43.984,43.984,0,0,0-30.177-76ZM169.8,218.413a25.146,25.146,0,0,1,44.41,0,35.784,35.784,0,0,1-44.41,0Zm13.619-30.081v-3.165a8.586,8.586,0,1,1,17.173,0v3.165a8.586,8.586,0,1,1-17.173,0Zm36.752,24.113a33,33,0,0,0-15.591-13.087,16.662,16.662,0,0,0,4.161-11.025v-3.166a16.735,16.735,0,0,0-33.471,0v3.166a16.66,16.66,0,0,0,4.161,11.025,33.007,33.007,0,0,0-15.591,13.087,35.856,35.856,0,1,1,56.331,0Z" transform="translate(-87.697 -86.678)" stroke="#fff" stroke-width="0.8"/>
          <path id="Path_22284" data-name="Path 22284" d="M146.875,394.309a4.076,4.076,0,1,0,2.881,1.194A4.105,4.105,0,0,0,146.875,394.309Z" transform="translate(-84.616 -233.65)" stroke="#fff" stroke-width="0.8"/>
          <path id="Path_22285" data-name="Path 22285" d="M250.278,22.021a4.075,4.075,0,0,0,4.075-4.075V4.084a4.075,4.075,0,1,0-8.149,0V17.947A4.075,4.075,0,0,0,250.278,22.021Z" transform="translate(-145.887 -0.009)" stroke="#fff" stroke-width="0.8"/>
          <path id="Path_22286" data-name="Path 22286" d="M250.275,75.158a4.077,4.077,0,1,0-2.881-1.194A4.1,4.1,0,0,0,250.275,75.158Z" transform="translate(-145.885 -39.71)" stroke="#fff" stroke-width="0.8"/>
          <path id="Path_22287" data-name="Path 22287" d="M310.406,51.618a4.063,4.063,0,0,0,2.881-1.193l7.161-7.161a4.075,4.075,0,0,0-5.763-5.763l-7.161,7.161a4.075,4.075,0,0,0,2.882,6.956Z" transform="translate(-181.515 -21.517)" stroke="#fff" stroke-width="0.8"/>
          <path id="Path_22288" data-name="Path 22288" d="M176.515,50.445a4.075,4.075,0,0,0,5.762-5.763l-7.23-7.23a4.075,4.075,0,0,0-5.763,5.763Z" transform="translate(-99.602 -21.489)" stroke="#fff" stroke-width="0.8"/>
        </g>
      </g>
    </g>
  </g>
</svg>
