<svg xmlns="http://www.w3.org/2000/svg" width="472.608" height="18.98" viewBox="0 0 472.608 18.98">
  <g id="Group_47" data-name="Group 47" transform="translate(-769 -464)">
    <g id="Group_32" data-name="Group 32" transform="translate(0 -1)">
      <g id="Group_17" data-name="Group 17">
        <g id="Group_14" data-name="Group 14" transform="translate(-48)">
          <path id="Path_22282" data-name="Path 22282" d="M208.278,5.519h-4.135a1.187,1.187,0,0,1-1.186-1.186V.193Z" transform="translate(913.312 464.819)" fill="#0f7882"/>
          <g id="Group_9707" data-name="Group 9707" transform="translate(13285 11452.856)">
            <path id="Path_22272" data-name="Path 22272" d="M20.515,0h10.08l5.342,5.322V17.794a1.186,1.186,0,0,1-1.186,1.186H20.515a1.186,1.186,0,0,1-1.186-1.186V1.186A1.186,1.186,0,0,1,20.515,0Z" transform="translate(-12199.329 -10987.856)" fill="#3cc9d7"/>
          </g>
          <path id="Path_22290" data-name="Path 22290" d="M208.278,5.519h-4.135a1.187,1.187,0,0,1-1.186-1.186V.193Z" transform="translate(913.312 464.819)" fill="#0f7882"/>
          <g id="Group_2" data-name="Group 2" transform="translate(66 -40)">
            <g id="icon_Env" transform="translate(1043 511)">
              <g id="Group_9120" data-name="Group 9120" transform="translate(0 0)">
                <g id="Group_9119" data-name="Group 9119" transform="translate(0 0)">
                  <path id="Path_3393" data-name="Path 3393" d="M8.556,19.838a.126.126,0,0,0-.008-.043.219.219,0,0,0-.086-.122L7.236,18.82v-.912a.219.219,0,0,0-.219-.219H5.607l-1.2-.834a.219.219,0,0,0-.25,0l-1.208.834h-1.4a.219.219,0,0,0-.219.219v.9l-1.232.851A.219.219,0,0,0,0,19.838s0,0,0,0L.006,24.6a.219.219,0,0,0,.219.219h0L8.343,24.8a.219.219,0,0,0,.218-.22Zm-1.32-.483.7.487-.7.487ZM4.281,17.3l.557.387H3.721Zm-2.517.826H6.8v2.507l-1.69,1.175-.689-.533,0,0a.219.219,0,0,0-.266,0l-.7.538-1.69-1.169Zm-.438,1.218v1l-.722-.5Zm-.887.917L3.093,22.1.445,24.149Zm.428,4.115,3.417-2.65,3.4,2.641Zm4.6-2.285,2.647-1.84.006,3.9Z" transform="translate(0 -16.815)" fill="#fff"/>
                </g>
              </g>
              <g id="Group_9122" data-name="Group 9122" transform="translate(2.357 2.173)">
                <g id="Group_9121" data-name="Group 9121">
                  <path id="Path_3394" data-name="Path 3394" d="M157.724,147.713H154.37a.248.248,0,1,0,0,.5h3.354a.248.248,0,1,0,0-.5Z" transform="translate(-154.122 -147.713)" fill="#fff"/>
                </g>
              </g>
              <g id="Group_9124" data-name="Group 9124" transform="translate(2.357 3.306)">
                <g id="Group_9123" data-name="Group 9123" transform="translate(0 0)">
                  <path id="Path_3395" data-name="Path 3395" d="M157.724,215.9H154.37a.248.248,0,0,0,0,.5h3.354a.248.248,0,1,0,0-.5Z" transform="translate(-154.122 -215.9)" fill="#fff"/>
                </g>
              </g>
            </g>
          </g>
        </g>
      </g>
    </g>
    <g id="Group_46" data-name="Group 46">
      <g id="Group_9709" data-name="Group 9709" transform="translate(13141 11451.856)">
        <path id="Path_82" data-name="Path 82" d="M20.515,0h10.08l5.342,5.322V17.794a1.186,1.186,0,0,1-1.186,1.186H20.515a1.186,1.186,0,0,1-1.186-1.186V1.186A1.186,1.186,0,0,1,20.515,0Z" transform="translate(-12391.329 -10987.856)" fill="#3cc9d7"/>
        <path id="Path_83" data-name="Path 83" d="M208.278,5.519h-4.135a1.187,1.187,0,0,1-1.186-1.186V.193Z" transform="translate(-12563.688 -10988.037)" fill="#0f7882"/>
        <path id="Path_84" data-name="Path 84" d="M95.078,136.1a.345.345,0,0,0,0-.683H93.947a.354.354,0,0,0-.345.386v2.781c0,.248.141.386.332.386s.332-.138.332-.386v-.763h.684a.321.321,0,0,0,.319-.346.315.315,0,0,0-.319-.337h-.684V136.1Zm-3.825-.683h-.828a.366.366,0,0,0-.384.383v2.786a.365.365,0,0,0,.394.373H91.3a1.612,1.612,0,0,0,1.708-1.721,1.654,1.654,0,0,0-1.755-1.818Zm.04,2.855h-.5V136.1h.455c.689,0,.988.462.988,1.1-.005.6-.3,1.072-.943,1.072ZM88.26,135.42h-.82a.345.345,0,0,0-.361.386v2.781a.35.35,0,1,0,.7,0v-.812h.514a1.123,1.123,0,0,0,1.158-1.173,1.136,1.136,0,0,0-1.191-1.182Zm-.014,1.7h-.473v-1.049h.473a.527.527,0,0,1,0,1.049Z" transform="translate(-12454.92 -11114.966)" fill="#fff"/>
      </g>
    </g>
    <g id="Group_45" data-name="Group 45">
      <g id="Group_9730" data-name="Group 9730" transform="translate(13141 11451.856)">
        <g id="Group_9728" data-name="Group 9728">
          <g id="Group_9710" data-name="Group 9710">
            <path id="Path_82-2" data-name="Path 82" d="M20.515,0h10.08l5.342,5.322V17.794a1.186,1.186,0,0,1-1.186,1.186H20.515a1.186,1.186,0,0,1-1.186-1.186V1.186A1.186,1.186,0,0,1,20.515,0Z" transform="translate(-12367.329 -10987.856)" fill="#c5c5c5"/>
            <path id="Path_83-2" data-name="Path 83" d="M208.278,5.519h-4.135a1.187,1.187,0,0,1-1.186-1.186V.193Z" transform="translate(-12539.688 -10988.037)" fill="#a2a2a2"/>
            <path id="Path_84-2" data-name="Path 84" d="M95.078,136.1a.345.345,0,0,0,0-.683H93.947a.354.354,0,0,0-.345.386v2.781c0,.248.141.386.332.386s.332-.138.332-.386v-.763h.684a.321.321,0,0,0,.319-.346.315.315,0,0,0-.319-.337h-.684V136.1Zm-3.825-.683h-.828a.366.366,0,0,0-.384.383v2.786a.365.365,0,0,0,.394.373H91.3a1.612,1.612,0,0,0,1.708-1.721,1.654,1.654,0,0,0-1.755-1.818Zm.04,2.855h-.5V136.1h.455c.689,0,.988.462.988,1.1-.005.6-.3,1.072-.943,1.072ZM88.26,135.42h-.82a.345.345,0,0,0-.361.386v2.781a.35.35,0,1,0,.7,0v-.812h.514a1.123,1.123,0,0,0,1.158-1.173,1.136,1.136,0,0,0-1.191-1.182Zm-.014,1.7h-.473v-1.049h.473a.527.527,0,0,1,0,1.049Z" transform="translate(-12430.92 -11114.966)" fill="#fff"/>
          </g>
        </g>
      </g>
      <g id="Group_43" data-name="Group 43">
        <g id="Group_9730-2" data-name="Group 9730" transform="translate(13141 11451.856)">
          <g id="Group_9728-2" data-name="Group 9728">
            <g id="Group_9710-2" data-name="Group 9710">
              <path id="Path_82-3" data-name="Path 82" d="M20.515,0h10.08l5.342,5.322V17.794a1.186,1.186,0,0,1-1.186,1.186H20.515a1.186,1.186,0,0,1-1.186-1.186V1.186A1.186,1.186,0,0,1,20.515,0Z" transform="translate(-12367.329 -10987.856)" fill="#c5c5c5"/>
              <path id="Path_83-3" data-name="Path 83" d="M208.278,5.519h-4.135a1.187,1.187,0,0,1-1.186-1.186V.193Z" transform="translate(-12539.688 -10988.037)" fill="#a2a2a2"/>
              <path id="Path_84-3" data-name="Path 84" d="M95.078,136.1a.345.345,0,0,0,0-.683H93.947a.354.354,0,0,0-.345.386v2.781c0,.248.141.386.332.386s.332-.138.332-.386v-.763h.684a.321.321,0,0,0,.319-.346.315.315,0,0,0-.319-.337h-.684V136.1Zm-3.825-.683h-.828a.366.366,0,0,0-.384.383v2.786a.365.365,0,0,0,.394.373H91.3a1.612,1.612,0,0,0,1.708-1.721,1.654,1.654,0,0,0-1.755-1.818Zm.04,2.855h-.5V136.1h.455c.689,0,.988.462.988,1.1-.005.6-.3,1.072-.943,1.072ZM88.26,135.42h-.82a.345.345,0,0,0-.361.386v2.781a.35.35,0,1,0,.7,0v-.812h.514a1.123,1.123,0,0,0,1.158-1.173,1.136,1.136,0,0,0-1.191-1.182Zm-.014,1.7h-.473v-1.049h.473a.527.527,0,0,1,0,1.049Z" transform="translate(-12430.92 -11114.966)" fill="#fff"/>
            </g>
          </g>
        </g>
      </g>
    </g>
    <g id="Group_41" data-name="Group 41">
      <g id="Group_9726" data-name="Group 9726" transform="translate(13141 11451.856)">
        <g id="Group_9712" data-name="Group 9712">
          <path id="Path_22246" data-name="Path 22246" d="M20.515,0h10.08l5.342,5.322V17.794a1.186,1.186,0,0,1-1.186,1.186H20.515a1.186,1.186,0,0,1-1.186-1.186V1.186A1.186,1.186,0,0,1,20.515,0Z" transform="translate(-12319.329 -10987.856)" fill="#c5c5c5"/>
          <path id="Path_22248" data-name="Path 22248" d="M208.278,5.519h-4.135a1.187,1.187,0,0,1-1.186-1.186V.193Z" transform="translate(-12491.688 -10988.037)" fill="#a2a2a2"/>
          <path id="Path_22265" data-name="Path 22265" d="M77.317,125.64v6.5h8v-6.5Zm6,.5v1h-1v-1Zm-3,2.5h-1v-1h1Zm.5-1h1v1h-1Zm-.5,1.5v1h-1v-1Zm.5,0h1v1h-1Zm1.5,0h1v1h-1Zm0-.5v-1h1v1Zm-.5-2.5v1h-1v-1Zm-1.5,0v1h-1v-1Zm-2.5,0h1v1h-1Zm0,1.5h1v1h-1Zm0,1.5h1v1h-1Zm0,2.5v-1h1v1Zm1.5,0v-1h1v1Zm1.5,0v-1h1v1Zm1.5,0v-1h1v1Zm2.5,0h-1v-1h1Zm0-1.5h-1v-1h1Zm0-1.5h-1v-1h1Zm0-1.5h-1v-1h1Z" transform="translate(-12373.317 -11106.507)" fill="#fff"/>
        </g>
      </g>
    </g>
    <g id="Group_44" data-name="Group 44">
      <g id="Group_42" data-name="Group 42">
        <g id="Group_9729" data-name="Group 9729" transform="translate(13141 11451.856)">
          <path id="Path_22246-2" data-name="Path 22246" d="M20.515,0h10.08l5.342,5.322V17.794a1.186,1.186,0,0,1-1.186,1.186H20.515a1.186,1.186,0,0,1-1.186-1.186V1.186A1.186,1.186,0,0,1,20.515,0Z" transform="translate(-12343.329 -10987.856)" fill="#3cc9d7"/>
          <path id="Path_22248-2" data-name="Path 22248" d="M208.278,5.519h-4.135a1.187,1.187,0,0,1-1.186-1.186V.193Z" transform="translate(-12515.688 -10988.037)" fill="#0f7882"/>
          <path id="Path_22265-2" data-name="Path 22265" d="M77.317,125.64v6.5h8v-6.5Zm6,.5v1h-1v-1Zm-3,2.5h-1v-1h1Zm.5-1h1v1h-1Zm-.5,1.5v1h-1v-1Zm.5,0h1v1h-1Zm1.5,0h1v1h-1Zm0-.5v-1h1v1Zm-.5-2.5v1h-1v-1Zm-1.5,0v1h-1v-1Zm-2.5,0h1v1h-1Zm0,1.5h1v1h-1Zm0,1.5h1v1h-1Zm0,2.5v-1h1v1Zm1.5,0v-1h1v1Zm1.5,0v-1h1v1Zm1.5,0v-1h1v1Zm2.5,0h-1v-1h1Zm0-1.5h-1v-1h1Zm0-1.5h-1v-1h1Zm0-1.5h-1v-1h1Z" transform="translate(-12397.317 -11106.507)" fill="#fff"/>
        </g>
      </g>
    </g>
    <g id="Group_40" data-name="Group 40">
      <g id="Group_9725" data-name="Group 9725" transform="translate(13141 11451.856)">
        <g id="Group_9713" data-name="Group 9713">
          <path id="Path_22249" data-name="Path 22249" d="M20.515,0h10.08l5.342,5.322V17.794a1.186,1.186,0,0,1-1.186,1.186H20.515a1.186,1.186,0,0,1-1.186-1.186V1.186A1.186,1.186,0,0,1,20.515,0Z" transform="translate(-12295.329 -10987.856)" fill="#3cc9d7"/>
          <path id="Path_22250" data-name="Path 22250" d="M208.278,5.519h-4.135a1.187,1.187,0,0,1-1.186-1.186V.193Z" transform="translate(-12467.688 -10988.037)" fill="#0f7882"/>
          <g id="image" transform="translate(-12272 -11041.855)">
            <path id="Path_22266" data-name="Path 22266" d="M92.58,124.1a.991.991,0,1,0-.991-.991A.991.991,0,0,0,92.58,124.1Zm0-1.487a.5.5,0,1,1-.5.5A.5.5,0,0,1,92.58,122.613Z" transform="translate(-90.101 -60.067)" fill="#fff"/>
            <path id="Path_22267" data-name="Path 22267" d="M7.684,61.059H.248A.248.248,0,0,0,0,61.307V66.76a.248.248,0,0,0,.248.248H7.684a.248.248,0,0,0,.248-.248V61.307A.248.248,0,0,0,7.684,61.059Zm-7.188.5h6.94v4.359l-2.3-2.3a.248.248,0,0,0-.351,0l-2.9,2.9H.5V61.555Zm6.838,4.957H2.581L4.957,64.14Z" fill="#fff"/>
          </g>
        </g>
      </g>
    </g>
    <g id="Group_39" data-name="Group 39">
      <g id="Group_9724" data-name="Group 9724" transform="translate(13141 11451.856)">
        <g id="Group_9714" data-name="Group 9714">
          <path id="Path_22251" data-name="Path 22251" d="M20.515,0h10.08l5.342,5.322V17.794a1.186,1.186,0,0,1-1.186,1.186H20.515a1.186,1.186,0,0,1-1.186-1.186V1.186A1.186,1.186,0,0,1,20.515,0Z" transform="translate(-12271.329 -10987.856)" fill="#c5c5c5"/>
          <path id="Path_22254" data-name="Path 22254" d="M208.278,5.519h-4.135a1.187,1.187,0,0,1-1.186-1.186V.193Z" transform="translate(-12443.688 -10988.037)" fill="#a2a2a2"/>
          <g id="image-2" data-name="image" transform="translate(-12248 -11041.855)">
            <path id="Path_22266-2" data-name="Path 22266" d="M92.58,124.1a.991.991,0,1,0-.991-.991A.991.991,0,0,0,92.58,124.1Zm0-1.487a.5.5,0,1,1-.5.5A.5.5,0,0,1,92.58,122.613Z" transform="translate(-90.101 -60.067)" fill="#fff"/>
            <path id="Path_22267-2" data-name="Path 22267" d="M7.684,61.059H.248A.248.248,0,0,0,0,61.307V66.76a.248.248,0,0,0,.248.248H7.684a.248.248,0,0,0,.248-.248V61.307A.248.248,0,0,0,7.684,61.059Zm-7.188.5h6.94v4.359l-2.3-2.3a.248.248,0,0,0-.351,0l-2.9,2.9H.5V61.555Zm6.838,4.957H2.581L4.957,64.14Z" fill="#fff"/>
          </g>
        </g>
      </g>
    </g>
    <g id="Group_38" data-name="Group 38">
      <g id="Group_9723" data-name="Group 9723" transform="translate(13141 11451.856)">
        <g id="Group_9715" data-name="Group 9715">
          <path id="Path_22255" data-name="Path 22255" d="M20.515,0h10.08l5.342,5.322V17.794a1.186,1.186,0,0,1-1.186,1.186H20.515a1.186,1.186,0,0,1-1.186-1.186V1.186A1.186,1.186,0,0,1,20.515,0Z" transform="translate(-12247.329 -10987.856)" fill="#3cc9d7"/>
          <path id="Path_22256" data-name="Path 22256" d="M208.278,5.519h-4.135a1.187,1.187,0,0,1-1.186-1.186V.193Z" transform="translate(-12419.688 -10988.037)" fill="#0f7882"/>
          <g id="Group_9701" data-name="Group 9701" transform="translate(-47.385 -52.344)">
            <g id="Group_9702" data-name="Group 9702">
              <path id="Path_22269" data-name="Path 22269" d="M7.689,6H.135A.135.135,0,0,0,0,6.135V12.07a.135.135,0,0,0,.135.135H7.689a.135.135,0,0,0,.135-.135V6.135A.135.135,0,0,0,7.689,6ZM1.349,8.968H.27V7.754H1.349ZM.27,9.237H1.349v1.214H.27Zm1.349,1.349V6.27H6.2v5.665H1.619ZM7.554,8.968H6.475V7.754H7.554Zm-1.079.27H7.554v1.214H6.475ZM7.554,6.27V7.484H6.475V6.27ZM.27,6.27H1.349V7.484H.27Zm0,5.665V10.721H1.349v1.214Zm7.284,0H6.475V10.721H7.554Z" transform="translate(-12176.615 -10934.453)" fill="#fff"/>
              <path id="Path_22270" data-name="Path 22270" d="M25.583,21.9l-1.389-.884a.126.126,0,0,0-.194.107V22.89a.126.126,0,0,0,.194.107l1.389-.884a.126.126,0,0,0,0-.213Zm-1.33.76v-1.3l1.027.654Z" transform="translate(-12197.318 -10947.36)" fill="#fff"/>
            </g>
          </g>
        </g>
      </g>
    </g>
    <g id="Group_37" data-name="Group 37">
      <g id="Group_9722" data-name="Group 9722" transform="translate(13141 11451.856)">
        <g id="Group_9716" data-name="Group 9716">
          <path id="Path_22258" data-name="Path 22258" d="M20.515,0h10.08l5.342,5.322V17.794a1.186,1.186,0,0,1-1.186,1.186H20.515a1.186,1.186,0,0,1-1.186-1.186V1.186A1.186,1.186,0,0,1,20.515,0Z" transform="translate(-12223.329 -10987.856)" fill="#c5c5c5"/>
          <path id="Path_22260" data-name="Path 22260" d="M208.278,5.519h-4.135a1.187,1.187,0,0,1-1.186-1.186V.193Z" transform="translate(-12395.688 -10988.037)" fill="#a2a2a2"/>
          <g id="Group_9703" data-name="Group 9703" transform="translate(-23.384 -52.344)">
            <g id="Group_9702-2" data-name="Group 9702">
              <path id="Path_22269-2" data-name="Path 22269" d="M7.689,6H.135A.135.135,0,0,0,0,6.135V12.07a.135.135,0,0,0,.135.135H7.689a.135.135,0,0,0,.135-.135V6.135A.135.135,0,0,0,7.689,6ZM1.349,8.968H.27V7.754H1.349ZM.27,9.237H1.349v1.214H.27Zm1.349,1.349V6.27H6.2v5.665H1.619ZM7.554,8.968H6.475V7.754H7.554Zm-1.079.27H7.554v1.214H6.475ZM7.554,6.27V7.484H6.475V6.27ZM.27,6.27H1.349V7.484H.27Zm0,5.665V10.721H1.349v1.214Zm7.284,0H6.475V10.721H7.554Z" transform="translate(-12176.615 -10934.453)" fill="#fff"/>
              <path id="Path_22270-2" data-name="Path 22270" d="M25.583,21.9l-1.389-.884a.126.126,0,0,0-.194.107V22.89a.126.126,0,0,0,.194.107l1.389-.884a.126.126,0,0,0,0-.213Zm-1.33.76v-1.3l1.027.654Z" transform="translate(-12197.318 -10947.36)" fill="#fff"/>
            </g>
          </g>
        </g>
      </g>
    </g>
    <g id="Group_9708" data-name="Group 9708" transform="translate(13189 11451.856)">
      <path id="Path_22274" data-name="Path 22274" d="M20.515,0h10.08l5.342,5.322V17.794a1.186,1.186,0,0,1-1.186,1.186H20.515a1.186,1.186,0,0,1-1.186-1.186V1.186A1.186,1.186,0,0,1,20.515,0Z" transform="translate(-12175.329 -10987.856)" fill="#c5c5c5"/>
      <path id="Path_22281" data-name="Path 22281" d="M208.278,5.519h-4.135a1.187,1.187,0,0,1-1.186-1.186V.193Z" transform="translate(-12347.688 -10988.037)" fill="#a2a2a2"/>
    </g>
    <g id="file" transform="translate(1031.5 470)">
      <path id="Path_22283" data-name="Path 22283" d="M20,22H16.635a.135.135,0,0,0,0,.27H20A.135.135,0,1,0,20,22Z" transform="translate(-8.652 -19.035)" fill="#fff"/>
      <path id="Path_22284" data-name="Path 22284" d="M16.635,14.27h1.348a.135.135,0,1,0,0-.27H16.635a.135.135,0,0,0,0,.27Z" transform="translate(-8.652 -12.113)" fill="#fff"/>
      <path id="Path_22285" data-name="Path 22285" d="M20,30H16.635a.135.135,0,0,0,0,.27H20A.135.135,0,1,0,20,30Z" transform="translate(-8.652 -25.957)" fill="#fff"/>
      <path id="Path_22286" data-name="Path 22286" d="M20,38H16.635a.135.135,0,0,0,0,.27H20A.135.135,0,1,0,20,38Z" transform="translate(-8.652 -32.879)" fill="#fff"/>
      <path id="Path_22287" data-name="Path 22287" d="M20,46H16.635a.135.135,0,0,0,0,.27H20A.135.135,0,1,0,20,46Z" transform="translate(-8.652 -39.801)" fill="#fff"/>
      <path id="Path_22288" data-name="Path 22288" d="M10.868,0H6.5V8.086h6.334V1.966Zm.079.46,1.427,1.427H10.947ZM6.77,7.817V.27h3.908V2.156h1.887v5.66Z" fill="#fff"/>
    </g>
    <g id="Group_36" data-name="Group 36">
      <g id="Group_9721" data-name="Group 9721" transform="translate(13141 11451.856)">
        <path id="Path_22273" data-name="Path 22273" d="M208.278,5.519h-4.135a1.187,1.187,0,0,1-1.186-1.186V.193Z" transform="translate(-12371.688 -10988.037)" fill="#0f7882"/>
        <g id="Group_9706" data-name="Group 9706">
          <path id="Path_22272-2" data-name="Path 22272" d="M20.515,0h10.08l5.342,5.322V17.794a1.186,1.186,0,0,1-1.186,1.186H20.515a1.186,1.186,0,0,1-1.186-1.186V1.186A1.186,1.186,0,0,1,20.515,0Z" transform="translate(-12199.329 -10987.856)" fill="#3cc9d7"/>
          <g id="music-note" transform="translate(-12175.507 -10996.994)">
            <g id="Group_9704" data-name="Group 9704" transform="translate(0 15.988)">
              <path id="Path_22271" data-name="Path 22271" d="M1.076,21.91a1.076,1.076,0,0,0,1.076-1.076h0V17.341H5.61v2.494a1.076,1.076,0,1,0,.676,1h0V15.988H1.476v3.846a1.076,1.076,0,1,0-.4,2.076Z" transform="translate(0 -15.988)" fill="#fff"/>
            </g>
          </g>
        </g>
        <path id="Path_22289" data-name="Path 22289" d="M208.278,5.519h-4.135a1.187,1.187,0,0,1-1.186-1.186V.193Z" transform="translate(-12371.688 -10988.037)" fill="#0f7882"/>
      </g>
    </g>
    <g id="Group_35" data-name="Group 35">
      <g id="Group_9720" data-name="Group 9720" transform="translate(13141 11451.856)">
        <path id="Path_22291" data-name="Path 22291" d="M208.278,5.519h-4.135a1.187,1.187,0,0,1-1.186-1.186V.193Z" transform="translate(-12347.688 -10988.037)" fill="#0f7882"/>
        <g id="Group_9717" data-name="Group 9717" transform="translate(24)">
          <path id="Path_22272-3" data-name="Path 22272" d="M20.515,0h10.08l5.342,5.322V17.794a1.186,1.186,0,0,1-1.186,1.186H20.515a1.186,1.186,0,0,1-1.186-1.186V1.186A1.186,1.186,0,0,1,20.515,0Z" transform="translate(-12199.329 -10987.856)" fill="#c5c5c5"/>
          <g id="music-note-2" data-name="music-note" transform="translate(-12175.507 -10996.994)">
            <g id="Group_9704-2" data-name="Group 9704" transform="translate(0 15.988)">
              <path id="Path_22271-2" data-name="Path 22271" d="M1.076,21.91a1.076,1.076,0,0,0,1.076-1.076h0V17.341H5.61v2.494a1.076,1.076,0,1,0,.676,1h0V15.988H1.476v3.846a1.076,1.076,0,1,0-.4,2.076Z" transform="translate(0 -15.988)" fill="#fff"/>
            </g>
          </g>
        </g>
        <path id="Path_22292" data-name="Path 22292" d="M208.278,5.519h-4.135a1.187,1.187,0,0,1-1.186-1.186V.193Z" transform="translate(-12347.688 -10988.037)" fill="#a2a2a2"/>
      </g>
    </g>
    <path id="Path_22282-2" data-name="Path 22282" d="M208.278,5.519h-4.135a1.187,1.187,0,0,1-1.186-1.186V.193Z" transform="translate(817.312 463.819)" fill="#0f7882"/>
    <g id="Group_9707-2" data-name="Group 9707" transform="translate(13189 11451.856)">
      <path id="Path_22272-4" data-name="Path 22272" d="M20.515,0h10.08l5.342,5.322V17.794a1.186,1.186,0,0,1-1.186,1.186H20.515a1.186,1.186,0,0,1-1.186-1.186V1.186A1.186,1.186,0,0,1,20.515,0Z" transform="translate(-12199.329 -10987.856)" fill="#3cc9d7"/>
    </g>
    <g id="file-2" data-name="file" transform="translate(1007.5 470)">
      <path id="Path_22283-2" data-name="Path 22283" d="M20,22H16.635a.135.135,0,0,0,0,.27H20A.135.135,0,1,0,20,22Z" transform="translate(-8.652 -19.035)" fill="#fff"/>
      <path id="Path_22284-2" data-name="Path 22284" d="M16.635,14.27h1.348a.135.135,0,1,0,0-.27H16.635a.135.135,0,0,0,0,.27Z" transform="translate(-8.652 -12.113)" fill="#fff"/>
      <path id="Path_22285-2" data-name="Path 22285" d="M20,30H16.635a.135.135,0,0,0,0,.27H20A.135.135,0,1,0,20,30Z" transform="translate(-8.652 -25.957)" fill="#fff"/>
      <path id="Path_22286-2" data-name="Path 22286" d="M20,38H16.635a.135.135,0,0,0,0,.27H20A.135.135,0,1,0,20,38Z" transform="translate(-8.652 -32.879)" fill="#fff"/>
      <path id="Path_22287-2" data-name="Path 22287" d="M20,46H16.635a.135.135,0,0,0,0,.27H20A.135.135,0,1,0,20,46Z" transform="translate(-8.652 -39.801)" fill="#fff"/>
      <path id="Path_22288-2" data-name="Path 22288" d="M10.868,0H6.5V8.086h6.334V1.966Zm.079.46,1.427,1.427H10.947ZM6.77,7.817V.27h3.908V2.156h1.887v5.66Z" fill="#fff"/>
    </g>
    <path id="Path_22290-2" data-name="Path 22290" d="M208.278,5.519h-4.135a1.187,1.187,0,0,1-1.186-1.186V.193Z" transform="translate(817.312 463.819)" fill="#0f7882"/>
    <g id="Group_31" data-name="Group 31" transform="translate(0 -1)">
      <g id="Group_16" data-name="Group 16">
        <g id="Group_6" data-name="Group 6" transform="translate(-24)">
          <path id="Path_22282-3" data-name="Path 22282" d="M208.278,5.519h-4.135a1.187,1.187,0,0,1-1.186-1.186V.193Z" transform="translate(913.312 464.819)" fill="#0f7882"/>
          <g id="Group_9707-3" data-name="Group 9707" transform="translate(13285 11452.856)">
            <path id="Path_22272-5" data-name="Path 22272" d="M20.515,0h10.08l5.342,5.322V17.794a1.186,1.186,0,0,1-1.186,1.186H20.515a1.186,1.186,0,0,1-1.186-1.186V1.186A1.186,1.186,0,0,1,20.515,0Z" transform="translate(-12199.329 -10987.856)" fill="#3cc9d7"/>
          </g>
          <path id="Path_22290-3" data-name="Path 22290" d="M208.278,5.519h-4.135a1.187,1.187,0,0,1-1.186-1.186V.193Z" transform="translate(913.312 464.819)" fill="#0f7882"/>
          <g id="Group_2-2" data-name="Group 2" transform="translate(66 -40)">
            <g id="icon_Env-2" data-name="icon_Env" transform="translate(1043 511)">
              <g id="Group_9120-2" data-name="Group 9120" transform="translate(0 0)">
                <g id="Group_9119-2" data-name="Group 9119" transform="translate(0 0)">
                  <path id="Path_3393-2" data-name="Path 3393" d="M8.556,19.838a.126.126,0,0,0-.008-.043.219.219,0,0,0-.086-.122L7.236,18.82v-.912a.219.219,0,0,0-.219-.219H5.607l-1.2-.834a.219.219,0,0,0-.25,0l-1.208.834h-1.4a.219.219,0,0,0-.219.219v.9l-1.232.851A.219.219,0,0,0,0,19.838s0,0,0,0L.006,24.6a.219.219,0,0,0,.219.219h0L8.343,24.8a.219.219,0,0,0,.218-.22Zm-1.32-.483.7.487-.7.487ZM4.281,17.3l.557.387H3.721Zm-2.517.826H6.8v2.507l-1.69,1.175-.689-.533,0,0a.219.219,0,0,0-.266,0l-.7.538-1.69-1.169Zm-.438,1.218v1l-.722-.5Zm-.887.917L3.093,22.1.445,24.149Zm.428,4.115,3.417-2.65,3.4,2.641Zm4.6-2.285,2.647-1.84.006,3.9Z" transform="translate(0 -16.815)" fill="#fff"/>
                </g>
              </g>
              <g id="Group_9122-2" data-name="Group 9122" transform="translate(2.357 2.173)">
                <g id="Group_9121-2" data-name="Group 9121">
                  <path id="Path_3394-2" data-name="Path 3394" d="M157.724,147.713H154.37a.248.248,0,1,0,0,.5h3.354a.248.248,0,1,0,0-.5Z" transform="translate(-154.122 -147.713)" fill="#fff"/>
                </g>
              </g>
              <g id="Group_9124-2" data-name="Group 9124" transform="translate(2.357 3.306)">
                <g id="Group_9123-2" data-name="Group 9123" transform="translate(0 0)">
                  <path id="Path_3395-2" data-name="Path 3395" d="M157.724,215.9H154.37a.248.248,0,0,0,0,.5h3.354a.248.248,0,1,0,0-.5Z" transform="translate(-154.122 -215.9)" fill="#fff"/>
                </g>
              </g>
            </g>
          </g>
        </g>
        <g id="Group_15" data-name="Group 15" transform="translate(24)">
          <path id="Path_22274-2" data-name="Path 22274" d="M20.515,0h10.08l5.342,5.322V17.794a1.186,1.186,0,0,1-1.186,1.186H20.515a1.186,1.186,0,0,1-1.186-1.186V1.186A1.186,1.186,0,0,1,20.515,0Z" transform="translate(1037.671 465)" fill="#c5c5c5"/>
          <path id="Path_22281-2" data-name="Path 22281" d="M208.278,5.519h-4.135a1.187,1.187,0,0,1-1.186-1.186V.193Z" transform="translate(865.312 464.819)" fill="#a2a2a2"/>
          <g id="icon_Env-3" data-name="icon_Env" transform="translate(1061 471)">
            <g id="Group_9120-3" data-name="Group 9120" transform="translate(0 0)">
              <g id="Group_9119-3" data-name="Group 9119" transform="translate(0 0)">
                <path id="Path_3393-3" data-name="Path 3393" d="M8.556,19.838a.126.126,0,0,0-.008-.043.219.219,0,0,0-.086-.122L7.236,18.82v-.912a.219.219,0,0,0-.219-.219H5.607l-1.2-.834a.219.219,0,0,0-.25,0l-1.208.834h-1.4a.219.219,0,0,0-.219.219v.9l-1.232.851A.219.219,0,0,0,0,19.838s0,0,0,0L.006,24.6a.219.219,0,0,0,.219.219h0L8.343,24.8a.219.219,0,0,0,.218-.22Zm-1.32-.483.7.487-.7.487ZM4.281,17.3l.557.387H3.721Zm-2.517.826H6.8v2.507l-1.69,1.175-.689-.533,0,0a.219.219,0,0,0-.266,0l-.7.538-1.69-1.169Zm-.438,1.218v1l-.722-.5Zm-.887.917L3.093,22.1.445,24.149Zm.428,4.115,3.417-2.65,3.4,2.641Zm4.6-2.285,2.647-1.84.006,3.9Z" transform="translate(0 -16.815)" fill="#fff"/>
              </g>
            </g>
            <g id="Group_9122-3" data-name="Group 9122" transform="translate(2.357 2.173)">
              <g id="Group_9121-3" data-name="Group 9121">
                <path id="Path_3394-3" data-name="Path 3394" d="M157.724,147.713H154.37a.248.248,0,1,0,0,.5h3.354a.248.248,0,1,0,0-.5Z" transform="translate(-154.122 -147.713)" fill="#fff"/>
              </g>
            </g>
            <g id="Group_9124-3" data-name="Group 9124" transform="translate(2.357 3.306)">
              <g id="Group_9123-3" data-name="Group 9123" transform="translate(0 0)">
                <path id="Path_3395-3" data-name="Path 3395" d="M157.724,215.9H154.37a.248.248,0,0,0,0,.5h3.354a.248.248,0,1,0,0-.5Z" transform="translate(-154.122 -215.9)" fill="#fff"/>
              </g>
            </g>
          </g>
        </g>
      </g>
    </g>
    <g id="Group_30" data-name="Group 30" transform="translate(0 -1)">
      <g id="Group_9719" data-name="Group 9719" transform="translate(13237 11452.856)">
        <path id="Path_22282-4" data-name="Path 22282" d="M208.278,5.519h-4.135a1.187,1.187,0,0,1-1.186-1.186V.193Z" transform="translate(-12323.688 -10988.037)" fill="#0f7882"/>
        <g id="Group_9707-4" data-name="Group 9707" transform="translate(48)">
          <path id="Path_22272-6" data-name="Path 22272" d="M20.515,0h10.08l5.342,5.322V17.794a1.186,1.186,0,0,1-1.186,1.186H20.515a1.186,1.186,0,0,1-1.186-1.186V1.186A1.186,1.186,0,0,1,20.515,0Z" transform="translate(-12199.329 -10987.856)" fill="#3cc9d7"/>
        </g>
        <path id="Path_22290-4" data-name="Path 22290" d="M208.278,5.519h-4.135a1.187,1.187,0,0,1-1.186-1.186V.193Z" transform="translate(-12323.688 -10988.037)" fill="#0f7882"/>
      </g>
      <g id="icon_xml" transform="translate(1077.628 470.435)">
        <path id="Path_3392" data-name="Path 3392" d="M38.967,3.219h-.215V2.177a.154.154,0,0,0,0-.02.173.173,0,0,0-.042-.114L36.972.06h0a.173.173,0,0,0-.035-.03L36.924.023a.185.185,0,0,0-.035-.015L36.88,0a.179.179,0,0,0-.041,0H32.575a.353.353,0,0,0-.353.353V3.219h-.216a.5.5,0,0,0-.506.5V6.346a.5.5,0,0,0,.5.5h.216v1.8A.353.353,0,0,0,32.574,9H38.4a.353.353,0,0,0,.353-.353v-1.8h.216a.5.5,0,0,0,.5-.5V3.722A.5.5,0,0,0,38.967,3.219ZM32.575.353h4.088V2.159a.176.176,0,0,0,.176.176H38.4v.884H32.575ZM37.024,6.12H36.5l-.035-.907c-.01-.285-.021-.63-.021-.974h-.01c-.074.3-.172.64-.264.918l-.288.925h-.418l-.253-.918c-.077-.278-.158-.615-.215-.925h-.007c-.014.32-.025.686-.042.981l-.042.9h-.5l.152-2.37h.714l.232.791c.074.274.148.569.2.847h.011c.067-.274.148-.587.225-.851L36.2,3.75h.7Zm-4.895,0,.685-1.2L32.153,3.75h.615l.207.432c.071.144.123.26.18.394h.007c.055-.151.1-.256.162-.394l.2-.432h.612l-.668,1.158.7,1.213h-.617l-.215-.429c-.088-.165-.144-.288-.211-.425h-.007c-.049.138-.11.26-.183.425l-.2.428H32.13ZM38.4,8.552H32.575v-1.7H38.4v1.7Zm.518-2.432h-1.48V3.75h.538V5.67h.943v.45Z" fill="#fff"/>
      </g>
    </g>
    <g id="Group_29" data-name="Group 29" transform="translate(0 -1)">
      <g id="Group_9718" data-name="Group 9718" transform="translate(13237 11452.856)">
        <g id="Group_9708-2" data-name="Group 9708" transform="translate(48)">
          <path id="Path_22274-3" data-name="Path 22274" d="M20.515,0h10.08l5.342,5.322V17.794a1.186,1.186,0,0,1-1.186,1.186H20.515a1.186,1.186,0,0,1-1.186-1.186V1.186A1.186,1.186,0,0,1,20.515,0Z" transform="translate(-12175.329 -10987.856)" fill="#c5c5c5"/>
          <path id="Path_22281-3" data-name="Path 22281" d="M208.278,5.519h-4.135a1.187,1.187,0,0,1-1.186-1.186V.193Z" transform="translate(-12347.688 -10988.037)" fill="#a2a2a2"/>
        </g>
      </g>
      <g id="icon_xml-2" data-name="icon_xml" transform="translate(1101.5 470.435)">
        <path id="Path_3392-2" data-name="Path 3392" d="M38.967,3.219h-.215V2.177a.154.154,0,0,0,0-.02.173.173,0,0,0-.042-.114L36.972.06h0a.173.173,0,0,0-.035-.03L36.924.023a.185.185,0,0,0-.035-.015L36.88,0a.179.179,0,0,0-.041,0H32.575a.353.353,0,0,0-.353.353V3.219h-.216a.5.5,0,0,0-.506.5V6.346a.5.5,0,0,0,.5.5h.216v1.8A.353.353,0,0,0,32.574,9H38.4a.353.353,0,0,0,.353-.353v-1.8h.216a.5.5,0,0,0,.5-.5V3.722A.5.5,0,0,0,38.967,3.219ZM32.575.353h4.088V2.159a.176.176,0,0,0,.176.176H38.4v.884H32.575ZM37.024,6.12H36.5l-.035-.907c-.01-.285-.021-.63-.021-.974h-.01c-.074.3-.172.64-.264.918l-.288.925h-.418l-.253-.918c-.077-.278-.158-.615-.215-.925h-.007c-.014.32-.025.686-.042.981l-.042.9h-.5l.152-2.37h.714l.232.791c.074.274.148.569.2.847h.011c.067-.274.148-.587.225-.851L36.2,3.75h.7Zm-4.895,0,.685-1.2L32.153,3.75h.615l.207.432c.071.144.123.26.18.394h.007c.055-.151.1-.256.162-.394l.2-.432h.612l-.668,1.158.7,1.213h-.617l-.215-.429c-.088-.165-.144-.288-.211-.425h-.007c-.049.138-.11.26-.183.425l-.2.428H32.13ZM38.4,8.552H32.575v-1.7H38.4v1.7Zm.518-2.432h-1.48V3.75h.538V5.67h.943v.45Z" fill="#fff"/>
      </g>
    </g>
    <g id="Group_28" data-name="Group 28" transform="translate(0 -1)">
      <g id="Group_9719-2" data-name="Group 9719" transform="translate(13285 11452.856)">
        <path id="Path_22282-5" data-name="Path 22282" d="M208.278,5.519h-4.135a1.187,1.187,0,0,1-1.186-1.186V.193Z" transform="translate(-12323.688 -10988.037)" fill="#0f7882"/>
        <g id="Group_9707-5" data-name="Group 9707" transform="translate(48)">
          <path id="Path_22272-7" data-name="Path 22272" d="M20.515,0h10.08l5.342,5.322V17.794a1.186,1.186,0,0,1-1.186,1.186H20.515a1.186,1.186,0,0,1-1.186-1.186V1.186A1.186,1.186,0,0,1,20.515,0Z" transform="translate(-12199.329 -10987.856)" fill="#3cc9d7"/>
        </g>
        <g id="file-3" data-name="file" transform="translate(-12133.5 -10982.043)">
          <path id="Path_22283-3" data-name="Path 22283" d="M20,22H16.635a.135.135,0,0,0,0,.27H20A.135.135,0,1,0,20,22Z" transform="translate(-8.652 -19.035)" fill="#fff"/>
          <path id="Path_22284-3" data-name="Path 22284" d="M16.635,14.27h1.348a.135.135,0,1,0,0-.27H16.635a.135.135,0,0,0,0,.27Z" transform="translate(-8.652 -12.113)" fill="#fff"/>
          <path id="Path_22285-3" data-name="Path 22285" d="M20,30H16.635a.135.135,0,0,0,0,.27H20A.135.135,0,1,0,20,30Z" transform="translate(-8.652 -25.957)" fill="#fff"/>
          <path id="Path_22286-3" data-name="Path 22286" d="M20,38H16.635a.135.135,0,0,0,0,.27H20A.135.135,0,1,0,20,38Z" transform="translate(-8.652 -32.879)" fill="#fff"/>
          <path id="Path_22287-3" data-name="Path 22287" d="M20,46H16.635a.135.135,0,0,0,0,.27H20A.135.135,0,1,0,20,46Z" transform="translate(-8.652 -39.801)" fill="#fff"/>
          <path id="Path_22288-3" data-name="Path 22288" d="M10.868,0H6.5V8.086h6.334V1.966Zm.079.46,1.427,1.427H10.947ZM6.77,7.817V.27h3.908V2.156h1.887v5.66Z" fill="#fff"/>
        </g>
        <path id="Path_22290-5" data-name="Path 22290" d="M208.278,5.519h-4.135a1.187,1.187,0,0,1-1.186-1.186V.193Z" transform="translate(-12323.688 -10988.037)" fill="#0f7882"/>
      </g>
      <g id="Group_9719-3" data-name="Group 9719" transform="translate(13285 11452.856)">
        <path id="Path_22282-6" data-name="Path 22282" d="M208.278,5.519h-4.135a1.187,1.187,0,0,1-1.186-1.186V.193Z" transform="translate(-12323.688 -10988.037)" fill="#0f7882"/>
        <g id="Group_9707-6" data-name="Group 9707" transform="translate(48)">
          <path id="Path_22272-8" data-name="Path 22272" d="M20.515,0h10.08l5.342,5.322V17.794a1.186,1.186,0,0,1-1.186,1.186H20.515a1.186,1.186,0,0,1-1.186-1.186V1.186A1.186,1.186,0,0,1,20.515,0Z" transform="translate(-12199.329 -10987.856)" fill="#3cc9d7"/>
        </g>
        <path id="Path_22290-6" data-name="Path 22290" d="M208.278,5.519h-4.135a1.187,1.187,0,0,1-1.186-1.186V.193Z" transform="translate(-12323.688 -10988.037)" fill="#0f7882"/>
      </g>
      <path id="Path_3375" data-name="Path 3375" d="M38.9,3.251h-.218V2.2a.157.157,0,0,0,0-.02.175.175,0,0,0-.042-.115l-1.752-2h0A.173.173,0,0,0,36.85.032L36.837.023A.186.186,0,0,0,36.8.008l-.009,0A.179.179,0,0,0,36.751,0H32.445a.357.357,0,0,0-.356.356V3.251H31.87a.509.509,0,0,0-.509.509V6.409a.51.51,0,0,0,.509.51h.218V8.732a.357.357,0,0,0,.356.356h5.881a.357.357,0,0,0,.356-.356V6.919H38.9a.51.51,0,0,0,.509-.509V3.76a.509.509,0,0,0-.509-.509ZM32.445.356h4.128V2.18a.178.178,0,0,0,.178.178h1.574v.893H32.445Zm2.683,4.834c-.442-.154-.73-.4-.73-.785,0-.455.379-.8,1.007-.8a1.627,1.627,0,0,1,.679.135l-.134.486a1.262,1.262,0,0,0-.557-.127c-.26,0-.387.119-.387.256,0,.171.15.245.494.375.47.174.691.418.691.794,0,.446-.344.825-1.074.825a1.743,1.743,0,0,1-.754-.162l.122-.5a1.533,1.533,0,0,0,.667.166c.276,0,.423-.114.423-.288s-.127-.259-.446-.373Zm-3.135-.174A1.357,1.357,0,0,1,33.445,3.6a1.569,1.569,0,0,1,.657.119l-.123.478a1.3,1.3,0,0,0-.505-.1.8.8,0,0,0-.849.882.795.795,0,0,0,.853.868,1.5,1.5,0,0,0,.5-.087l.091.47a1.713,1.713,0,0,1-.682.114,1.267,1.267,0,0,1-1.4-1.331Zm6.333,3.618H32.445V6.919h5.881Zm-.4-2.327h-.7l-.853-2.661h.66l.324,1.126c.091.316.174.62.237.951H37.6c.067-.32.15-.636.241-.938l.34-1.137h.639Z" transform="translate(1125.639 470.435)" fill="#fff"/>
    </g>
    <g id="Group_27" data-name="Group 27" transform="translate(0 -1)">
      <g id="Group_9718-2" data-name="Group 9718" transform="translate(13285 11452.856)">
        <g id="Group_9708-3" data-name="Group 9708" transform="translate(48)">
          <path id="Path_22274-4" data-name="Path 22274" d="M20.515,0h10.08l5.342,5.322V17.794a1.186,1.186,0,0,1-1.186,1.186H20.515a1.186,1.186,0,0,1-1.186-1.186V1.186A1.186,1.186,0,0,1,20.515,0Z" transform="translate(-12175.329 -10987.856)" fill="#c5c5c5"/>
          <path id="Path_22281-4" data-name="Path 22281" d="M208.278,5.519h-4.135a1.187,1.187,0,0,1-1.186-1.186V.193Z" transform="translate(-12347.688 -10988.037)" fill="#a2a2a2"/>
        </g>
        <g id="file-4" data-name="file" transform="translate(-12109.5 -10982.043)">
          <path id="Path_22283-4" data-name="Path 22283" d="M20,22H16.635a.135.135,0,0,0,0,.27H20A.135.135,0,1,0,20,22Z" transform="translate(-8.652 -19.035)" fill="#fff"/>
          <path id="Path_22284-4" data-name="Path 22284" d="M16.635,14.27h1.348a.135.135,0,1,0,0-.27H16.635a.135.135,0,0,0,0,.27Z" transform="translate(-8.652 -12.113)" fill="#fff"/>
          <path id="Path_22285-4" data-name="Path 22285" d="M20,30H16.635a.135.135,0,0,0,0,.27H20A.135.135,0,1,0,20,30Z" transform="translate(-8.652 -25.957)" fill="#fff"/>
          <path id="Path_22286-4" data-name="Path 22286" d="M20,38H16.635a.135.135,0,0,0,0,.27H20A.135.135,0,1,0,20,38Z" transform="translate(-8.652 -32.879)" fill="#fff"/>
          <path id="Path_22287-4" data-name="Path 22287" d="M20,46H16.635a.135.135,0,0,0,0,.27H20A.135.135,0,1,0,20,46Z" transform="translate(-8.652 -39.801)" fill="#fff"/>
          <path id="Path_22288-4" data-name="Path 22288" d="M10.868,0H6.5V8.086h6.334V1.966Zm.079.46,1.427,1.427H10.947ZM6.77,7.817V.27h3.908V2.156h1.887v5.66Z" fill="#fff"/>
        </g>
      </g>
      <g id="Group_9718-3" data-name="Group 9718" transform="translate(13285 11452.856)">
        <g id="Group_9708-4" data-name="Group 9708" transform="translate(48)">
          <path id="Path_22274-5" data-name="Path 22274" d="M20.515,0h10.08l5.342,5.322V17.794a1.186,1.186,0,0,1-1.186,1.186H20.515a1.186,1.186,0,0,1-1.186-1.186V1.186A1.186,1.186,0,0,1,20.515,0Z" transform="translate(-12175.329 -10987.856)" fill="#c5c5c5"/>
          <path id="Path_22281-5" data-name="Path 22281" d="M208.278,5.519h-4.135a1.187,1.187,0,0,1-1.186-1.186V.193Z" transform="translate(-12347.688 -10988.037)" fill="#a2a2a2"/>
        </g>
      </g>
      <path id="Path_3375-2" data-name="Path 3375" d="M38.9,3.251h-.218V2.2a.157.157,0,0,0,0-.02.175.175,0,0,0-.042-.115l-1.752-2h0A.173.173,0,0,0,36.85.032L36.837.023A.186.186,0,0,0,36.8.008l-.009,0A.179.179,0,0,0,36.751,0H32.445a.357.357,0,0,0-.356.356V3.251H31.87a.509.509,0,0,0-.509.509V6.409a.51.51,0,0,0,.509.51h.218V8.732a.357.357,0,0,0,.356.356h5.881a.357.357,0,0,0,.356-.356V6.919H38.9a.51.51,0,0,0,.509-.509V3.76a.509.509,0,0,0-.509-.509ZM32.445.356h4.128V2.18a.178.178,0,0,0,.178.178h1.574v.893H32.445Zm2.683,4.834c-.442-.154-.73-.4-.73-.785,0-.455.379-.8,1.007-.8a1.627,1.627,0,0,1,.679.135l-.134.486a1.262,1.262,0,0,0-.557-.127c-.26,0-.387.119-.387.256,0,.171.15.245.494.375.47.174.691.418.691.794,0,.446-.344.825-1.074.825a1.743,1.743,0,0,1-.754-.162l.122-.5a1.533,1.533,0,0,0,.667.166c.276,0,.423-.114.423-.288s-.127-.259-.446-.373Zm-3.135-.174A1.357,1.357,0,0,1,33.445,3.6a1.569,1.569,0,0,1,.657.119l-.123.478a1.3,1.3,0,0,0-.505-.1.8.8,0,0,0-.849.882.795.795,0,0,0,.853.868,1.5,1.5,0,0,0,.5-.087l.091.47a1.713,1.713,0,0,1-.682.114,1.267,1.267,0,0,1-1.4-1.331Zm6.333,3.618H32.445V6.919h5.881Zm-.4-2.327h-.7l-.853-2.661h.66l.324,1.126c.091.316.174.62.237.951H37.6c.067-.32.15-.636.241-.938l.34-1.137h.639Z" transform="translate(1149.639 470.435)" fill="#fff"/>
    </g>
    <g id="Group_26" data-name="Group 26" transform="translate(0 -1)">
      <g id="Group_9719-4" data-name="Group 9719" transform="translate(13333 11452.856)">
        <path id="Path_22282-7" data-name="Path 22282" d="M208.278,5.519h-4.135a1.187,1.187,0,0,1-1.186-1.186V.193Z" transform="translate(-12323.688 -10988.037)" fill="#0f7882"/>
        <g id="Group_9707-7" data-name="Group 9707" transform="translate(48)">
          <path id="Path_22272-9" data-name="Path 22272" d="M20.515,0h10.08l5.342,5.322V17.794a1.186,1.186,0,0,1-1.186,1.186H20.515a1.186,1.186,0,0,1-1.186-1.186V1.186A1.186,1.186,0,0,1,20.515,0Z" transform="translate(-12199.329 -10987.856)" fill="#3cc9d7"/>
        </g>
        <g id="file-5" data-name="file" transform="translate(-12133.5 -10982.043)">
          <path id="Path_22283-5" data-name="Path 22283" d="M20,22H16.635a.135.135,0,0,0,0,.27H20A.135.135,0,1,0,20,22Z" transform="translate(-8.652 -19.035)" fill="#fff"/>
          <path id="Path_22284-5" data-name="Path 22284" d="M16.635,14.27h1.348a.135.135,0,1,0,0-.27H16.635a.135.135,0,0,0,0,.27Z" transform="translate(-8.652 -12.113)" fill="#fff"/>
          <path id="Path_22285-5" data-name="Path 22285" d="M20,30H16.635a.135.135,0,0,0,0,.27H20A.135.135,0,1,0,20,30Z" transform="translate(-8.652 -25.957)" fill="#fff"/>
          <path id="Path_22286-5" data-name="Path 22286" d="M20,38H16.635a.135.135,0,0,0,0,.27H20A.135.135,0,1,0,20,38Z" transform="translate(-8.652 -32.879)" fill="#fff"/>
          <path id="Path_22287-5" data-name="Path 22287" d="M20,46H16.635a.135.135,0,0,0,0,.27H20A.135.135,0,1,0,20,46Z" transform="translate(-8.652 -39.801)" fill="#fff"/>
          <path id="Path_22288-5" data-name="Path 22288" d="M10.868,0H6.5V8.086h6.334V1.966Zm.079.46,1.427,1.427H10.947ZM6.77,7.817V.27h3.908V2.156h1.887v5.66Z" fill="#fff"/>
        </g>
        <path id="Path_22290-7" data-name="Path 22290" d="M208.278,5.519h-4.135a1.187,1.187,0,0,1-1.186-1.186V.193Z" transform="translate(-12323.688 -10988.037)" fill="#0f7882"/>
      </g>
      <g id="Group_9719-5" data-name="Group 9719" transform="translate(13333 11452.856)">
        <path id="Path_22282-8" data-name="Path 22282" d="M208.278,5.519h-4.135a1.187,1.187,0,0,1-1.186-1.186V.193Z" transform="translate(-12323.688 -10988.037)" fill="#0f7882"/>
        <g id="Group_9707-8" data-name="Group 9707" transform="translate(48)">
          <path id="Path_22272-10" data-name="Path 22272" d="M20.515,0h10.08l5.342,5.322V17.794a1.186,1.186,0,0,1-1.186,1.186H20.515a1.186,1.186,0,0,1-1.186-1.186V1.186A1.186,1.186,0,0,1,20.515,0Z" transform="translate(-12199.329 -10987.856)" fill="#3cc9d7"/>
        </g>
        <path id="Path_22290-8" data-name="Path 22290" d="M208.278,5.519h-4.135a1.187,1.187,0,0,1-1.186-1.186V.193Z" transform="translate(-12323.688 -10988.037)" fill="#0f7882"/>
      </g>
      <g id="Icon_text" transform="translate(1205.55 464.186)">
        <g id="Group_22" data-name="Group 22">
          <path id="Path_3380" data-name="Path 3380" d="M.109,57.074v8.67a.167.167,0,0,0,.167.167H6.611a.167.167,0,0,0,.167-.167v-7a.071.071,0,0,0,0-.011.157.157,0,0,0-.009-.043c0-.005,0-.011-.006-.016a.165.165,0,0,0-.033-.049L5.062,56.957a.162.162,0,0,0-.049-.033L5,56.919a.166.166,0,0,0-.043-.009H.276a.167.167,0,0,0-.167.167Zm6.1,1.5H5.11v-1.1ZM.443,57.24H4.777v1.5a.167.167,0,0,0,.167.167h1.5v6.67h-6Zm0,0" transform="translate(0 -50.41)" fill="#fff"/>
          <path id="Path_3382" data-name="Path 3382" d="M75.977,189.668h3.99V190h-3.99Zm0,0" transform="translate(-74.529 -180.837)" fill="#fff"/>
          <path id="Path_3383" data-name="Path 3383" d="M75.977,132.766h1.338v.335H75.977Zm0,0" transform="translate(-74.536 -124.929)" fill="#fff"/>
          <path id="Path_3384" data-name="Path 3384" d="M75.977,246.566h2.678v.335H75.977Zm0,0" transform="translate(-74.538 -236.735)" fill="#fff"/>
          <path id="Path_3385" data-name="Path 3385" d="M246.676,246.566h1v.335h-1Zm0,0" transform="translate(-242.235 -236.735)" fill="#fff"/>
          <path id="Path_3386" data-name="Path 3386" d="M75.977,303.465h3.99v.335h-3.99Zm0,0" transform="translate(-74.529 -292.634)" fill="#fff"/>
          <path id="Path_3387" data-name="Path 3387" d="M75.977,417.266h3.99v.335h-3.99Zm0,0" transform="translate(-74.529 -404.434)" fill="#fff"/>
          <path id="Path_3388" data-name="Path 3388" d="M161.324,360.367h2.509v.335h-2.509Zm0,0" transform="translate(-158.388 -348.535)" fill="#fff"/>
          <path id="Path_3389" data-name="Path 3389" d="M75.977,360.367h1.171v.335H75.977Zm0,0" transform="translate(-74.535 -348.535)" fill="#fff"/>
          <path id="Path_3390" data-name="Path 3390" d="M75.977,474.168h.669v.335h-.669Zm0,0" transform="translate(-74.535 -460.342)" fill="#fff"/>
          <path id="Path_3391" data-name="Path 3391" d="M132.875,474.168h3.013v.335h-3.013Zm0,0" transform="translate(-130.44 -460.342)" fill="#fff"/>
        </g>
      </g>
    </g>
    <g id="Group_25" data-name="Group 25" transform="translate(0 -1)">
      <g id="Group_9718-4" data-name="Group 9718" transform="translate(13333 11452.856)">
        <g id="Group_9708-5" data-name="Group 9708" transform="translate(48)">
          <path id="Path_22274-6" data-name="Path 22274" d="M20.515,0h10.08l5.342,5.322V17.794a1.186,1.186,0,0,1-1.186,1.186H20.515a1.186,1.186,0,0,1-1.186-1.186V1.186A1.186,1.186,0,0,1,20.515,0Z" transform="translate(-12175.329 -10987.856)" fill="#c5c5c5"/>
          <path id="Path_22281-6" data-name="Path 22281" d="M208.278,5.519h-4.135a1.187,1.187,0,0,1-1.186-1.186V.193Z" transform="translate(-12347.688 -10988.037)" fill="#a2a2a2"/>
        </g>
        <g id="file-6" data-name="file" transform="translate(-12109.5 -10982.043)">
          <path id="Path_22283-6" data-name="Path 22283" d="M20,22H16.635a.135.135,0,0,0,0,.27H20A.135.135,0,1,0,20,22Z" transform="translate(-8.652 -19.035)" fill="#fff"/>
          <path id="Path_22284-6" data-name="Path 22284" d="M16.635,14.27h1.348a.135.135,0,1,0,0-.27H16.635a.135.135,0,0,0,0,.27Z" transform="translate(-8.652 -12.113)" fill="#fff"/>
          <path id="Path_22285-6" data-name="Path 22285" d="M20,30H16.635a.135.135,0,0,0,0,.27H20A.135.135,0,1,0,20,30Z" transform="translate(-8.652 -25.957)" fill="#fff"/>
          <path id="Path_22286-6" data-name="Path 22286" d="M20,38H16.635a.135.135,0,0,0,0,.27H20A.135.135,0,1,0,20,38Z" transform="translate(-8.652 -32.879)" fill="#fff"/>
          <path id="Path_22287-6" data-name="Path 22287" d="M20,46H16.635a.135.135,0,0,0,0,.27H20A.135.135,0,1,0,20,46Z" transform="translate(-8.652 -39.801)" fill="#fff"/>
          <path id="Path_22288-6" data-name="Path 22288" d="M10.868,0H6.5V8.086h6.334V1.966Zm.079.46,1.427,1.427H10.947ZM6.77,7.817V.27h3.908V2.156h1.887v5.66Z" fill="#fff"/>
        </g>
      </g>
      <g id="Group_9708-6" data-name="Group 9708" transform="translate(13381 11452.856)">
        <path id="Path_22274-7" data-name="Path 22274" d="M20.515,0h10.08l5.342,5.322V17.794a1.186,1.186,0,0,1-1.186,1.186H20.515a1.186,1.186,0,0,1-1.186-1.186V1.186A1.186,1.186,0,0,1,20.515,0Z" transform="translate(-12175.329 -10987.856)" fill="#c5c5c5"/>
        <path id="Path_22281-7" data-name="Path 22281" d="M208.278,5.519h-4.135a1.187,1.187,0,0,1-1.186-1.186V.193Z" transform="translate(-12347.688 -10988.037)" fill="#a2a2a2"/>
      </g>
      <g id="Group_22-2" data-name="Group 22" transform="translate(1229.891 464.186)">
        <path id="Path_3380-2" data-name="Path 3380" d="M.109,57.074v8.67a.167.167,0,0,0,.167.167H6.611a.167.167,0,0,0,.167-.167v-7a.071.071,0,0,0,0-.011.157.157,0,0,0-.009-.043c0-.005,0-.011-.006-.016a.165.165,0,0,0-.033-.049L5.062,56.957a.162.162,0,0,0-.049-.033L5,56.919a.166.166,0,0,0-.043-.009H.276a.167.167,0,0,0-.167.167Zm6.1,1.5H5.11v-1.1ZM.443,57.24H4.777v1.5a.167.167,0,0,0,.167.167h1.5v6.67h-6Zm0,0" transform="translate(0 -50.41)" fill="#fff"/>
        <path id="Path_3382-2" data-name="Path 3382" d="M75.977,189.668h3.99V190h-3.99Zm0,0" transform="translate(-74.529 -180.837)" fill="#fff"/>
        <path id="Path_3383-2" data-name="Path 3383" d="M75.977,132.766h1.338v.335H75.977Zm0,0" transform="translate(-74.536 -124.929)" fill="#fff"/>
        <path id="Path_3384-2" data-name="Path 3384" d="M75.977,246.566h2.678v.335H75.977Zm0,0" transform="translate(-74.538 -236.735)" fill="#fff"/>
        <path id="Path_3385-2" data-name="Path 3385" d="M246.676,246.566h1v.335h-1Zm0,0" transform="translate(-242.235 -236.735)" fill="#fff"/>
        <path id="Path_3386-2" data-name="Path 3386" d="M75.977,303.465h3.99v.335h-3.99Zm0,0" transform="translate(-74.529 -292.634)" fill="#fff"/>
        <path id="Path_3387-2" data-name="Path 3387" d="M75.977,417.266h3.99v.335h-3.99Zm0,0" transform="translate(-74.529 -404.434)" fill="#fff"/>
        <path id="Path_3388-2" data-name="Path 3388" d="M161.324,360.367h2.509v.335h-2.509Zm0,0" transform="translate(-158.388 -348.535)" fill="#fff"/>
        <path id="Path_3389-2" data-name="Path 3389" d="M75.977,360.367h1.171v.335H75.977Zm0,0" transform="translate(-74.535 -348.535)" fill="#fff"/>
        <path id="Path_3390-2" data-name="Path 3390" d="M75.977,474.168h.669v.335h-.669Zm0,0" transform="translate(-74.535 -460.342)" fill="#fff"/>
        <path id="Path_3391-2" data-name="Path 3391" d="M132.875,474.168h3.013v.335h-3.013Zm0,0" transform="translate(-130.44 -460.342)" fill="#fff"/>
      </g>
    </g>
  </g>
</svg>
