<svg xmlns="http://www.w3.org/2000/svg" width="15.995" height="16" viewBox="0 0 15.995 16">
  <path id="phone" d="M1.551,3.018l.036-.036L3.508,1.31A1.288,1.288,0,0,1,4.522.972a1.541,1.541,0,0,1,.925.427l.053.053L7.387,3.837A1.337,1.337,0,0,1,7.351,5.7a.472.472,0,0,1-.107.089l-.961.64c.071.338.569,1.3,2.331,3.06,1.743,1.743,2.722,2.242,3.042,2.313l.64-.961a.472.472,0,0,1,.089-.107,1.355,1.355,0,0,1,1.868-.036L16.62,12.59l.053.053a1.43,1.43,0,0,1,.089,1.939l-1.672,1.9-.036.036a1.9,1.9,0,0,1-1.37.445A8.076,8.076,0,0,1,11,16.343,16.694,16.694,0,0,1,5.43,12.607,17.045,17.045,0,0,1,1.694,7.039C1.373,6.149.626,3.943,1.551,3.018Zm4.91,8.611c3.291,3.291,6.992,4.2,7.614,3.9l1.619-1.868h0l-2.313-1.832-.623.943c-.018.018-.018.036-.036.053a1.151,1.151,0,0,1-.872.427c-.338.018-1.388.071-4.216-2.758C6.942,9.8,4.807,7.662,4.878,6.274A1.212,1.212,0,0,1,5.305,5.4c.018-.018.036-.036.053-.036l.907-.64L4.433,2.4h0L2.583,4.015C2.263,4.637,3.17,8.338,6.462,11.629Z" transform="translate(-1.104 -0.966)" fill="#858585"/>
</svg>
